<svg width="70" height="71" viewBox="0 0 70 71" fill="none" xmlns="http://www.w3.org/2000/svg">
<circle cx="35" cy="35.7134" r="35" fill="#B61D1D"/>
<path d="M47.8364 24.9032V30.9839H49.1877V33.6864H53.2415V30.9839V30.3083V24.9032H47.8364Z" fill="#EFAFAF"/>
<path d="M32.2882 21.6176C32.2896 21.5865 32.2977 21.5568 32.2977 21.525C32.2977 20.0325 31.0876 18.8225 29.5952 18.8225C29.2587 18.8225 28.9405 18.8914 28.6432 19.0035C28.2061 18.0995 27.2885 17.4712 26.217 17.4712C25.1454 17.4712 24.2279 18.0995 23.7908 19.0035C23.4935 18.8914 23.1753 18.8225 22.8388 18.8225C21.3463 18.8225 20.1363 20.0325 20.1363 21.525C20.1363 21.5568 20.1444 21.5865 20.1457 21.6176C18.9769 21.9155 18.1094 22.9661 18.1094 24.2275C18.1094 24.8701 18.3431 25.4525 18.7181 25.9166L19.5228 26.7213H19.5323C19.8822 26.4342 20.3241 26.2544 20.8119 26.2544H21.4875L22.3767 24.9201C22.6652 24.4877 23.151 24.2275 23.6712 24.2275C24.0077 24.2275 24.3353 24.337 24.6049 24.539C26.09 25.6524 27.8959 26.2544 29.7519 26.2544H30.9464H31.6221C32.1099 26.2544 32.5517 26.4342 32.901 26.7213H32.9118L33.7165 25.9166C34.0908 25.4525 34.3246 24.8701 34.3246 24.2275C34.3246 22.9661 33.4571 21.9155 32.2882 21.6176Z" fill="#EFAFAF"/>
<path d="M51.0494 49.0057C51.9729 48.2619 52.5668 47.1234 52.5668 45.8478C52.5668 43.6121 50.7487 41.794 48.513 41.794C46.2773 41.794 44.4592 43.6121 44.4592 45.8478C44.4592 47.1234 45.0531 48.2619 45.9767 49.0057C44.1025 49.6895 42.5809 51.1022 41.7567 52.9048C40.9324 51.1029 39.4109 49.6895 37.5367 49.0057C38.4603 48.2619 39.0541 47.1234 39.0541 45.8478C39.0541 45.0215 38.8048 44.2533 38.3785 43.6115V42.4926C38.3785 39.7921 36.5651 37.3875 33.9686 36.6463L28.9196 35.2039V34.0681C29.8432 33.2087 30.5641 32.1554 31.0269 30.9839H31.6222C33.1126 30.9839 34.3247 29.7718 34.3247 28.2813C34.3247 26.7909 33.1126 25.5788 31.6222 25.5788H29.752C28.0528 25.5788 26.3691 25.0173 25.0097 23.9985C24.6266 23.71 24.151 23.5519 23.6713 23.5519C22.9234 23.5519 22.2288 23.9235 21.8146 24.5457L21.1262 25.5788H20.812C19.3216 25.5788 18.1095 26.7909 18.1095 28.2813C18.1095 29.7718 19.3216 30.9839 20.812 30.9839H21.4072C21.8701 32.1554 22.591 33.2087 23.5145 34.0681V35.2039L18.4655 36.6463C15.8691 37.3882 14.0557 39.7921 14.0557 42.4926V45.8478H17.4338C17.4338 47.1234 18.0277 48.2619 18.9513 49.0057C16.1008 50.0455 14.0557 52.7758 14.0557 55.9823V56.658H27.5684H28.9196H41.081H42.4323H55.945V55.9823C55.945 52.7758 53.8999 50.0455 51.0494 49.0057ZM35.0003 48.5504C33.5099 48.5504 32.2978 47.3383 32.2978 45.8478C32.2978 44.3574 33.5099 43.1453 35.0003 43.1453C36.4908 43.1453 37.7029 44.3574 37.7029 45.8478C37.7029 47.3383 36.4908 48.5504 35.0003 48.5504ZM32.9734 28.2813C32.9734 29.0265 32.3674 29.6326 31.6222 29.6326H31.4337C31.5559 29.059 31.6222 28.4678 31.6222 27.8651V26.9301C32.3674 26.9301 32.9734 27.5361 32.9734 28.2813ZM20.812 29.6326C20.0668 29.6326 19.4607 29.0265 19.4607 28.2813C19.4607 27.5361 20.0668 26.9301 20.812 26.9301V27.8651C20.812 28.4678 20.8782 29.059 21.0005 29.6326H20.812ZM22.1633 27.8651V26.4585L22.9389 25.2943C23.2071 24.8923 23.8132 24.789 24.199 25.0788C25.7901 26.2727 27.7623 26.9301 29.752 26.9301H30.2709V27.8651C30.2709 30.6231 28.6892 33.1155 26.2171 34.2958C23.7449 33.1155 22.1633 30.6231 22.1633 27.8651ZM25.9509 35.6586L26.2171 35.7728L26.4833 35.6586C26.8623 35.4964 27.2238 35.3079 27.5684 35.0971V35.7133C27.5684 36.4585 26.9623 37.0646 26.2171 37.0646C25.4719 37.0646 24.8658 36.4585 24.8658 35.7133V35.0971C25.2104 35.3072 25.5725 35.4964 25.9509 35.6586ZM15.4069 44.4965V42.4926C15.4069 40.3921 16.8177 38.5226 18.8365 37.9456L23.6652 36.5659C24.0246 37.6368 25.0266 38.4158 26.2171 38.4158C27.4076 38.4158 28.4095 37.6368 28.769 36.5659L33.5977 37.9456C35.5652 38.5077 36.9441 40.3002 37.0144 42.3345C36.4198 41.9926 35.7334 41.794 35.0003 41.794C34.7699 41.794 34.545 41.8177 34.3247 41.8548V40.4427H32.9734V42.3426C32.1471 42.8223 31.5073 43.5844 31.183 44.4965H25.305C24.7469 42.9243 23.249 41.794 21.4876 41.794C20.7492 41.794 20.058 41.996 19.4607 42.3426V40.4427H18.1095V43.6115C17.9277 43.8851 17.7818 44.1824 17.6703 44.4965H15.4069ZM18.7851 45.8478C18.7851 44.3574 19.9972 43.1453 21.4876 43.1453C22.9781 43.1453 24.1902 44.3574 24.1902 45.8478C24.1902 47.3383 22.9781 48.5504 21.4876 48.5504C19.9972 48.5504 18.7851 47.3383 18.7851 45.8478ZM15.4448 55.3067C15.7819 52.2704 18.3628 49.9016 21.4876 49.9016C24.6125 49.9016 27.1934 52.2704 27.5305 55.3067H15.4448ZM24.024 49.0057C24.9476 48.2619 25.5414 47.1234 25.5414 45.8478H30.9465C30.9465 47.1234 31.5404 48.2619 32.464 49.0057C30.5898 49.6895 29.0683 51.1022 28.244 52.9048C27.4197 51.1022 25.8982 49.6895 24.024 49.0057ZM28.9575 55.3067C29.2946 52.2704 31.8755 49.9016 35.0003 49.9016C38.1251 49.9016 40.7061 52.2704 41.0432 55.3067H28.9575ZM45.8105 45.8478C45.8105 44.3574 47.0226 43.1453 48.513 43.1453C50.0035 43.1453 51.2156 44.3574 51.2156 45.8478C51.2156 47.3383 50.0035 48.5504 48.513 48.5504C47.0226 48.5504 45.8105 47.3383 45.8105 45.8478ZM42.4701 55.3067C42.8073 52.2704 45.3882 49.9016 48.513 49.9016C51.6378 49.9016 54.2188 52.2704 54.5559 55.3067H42.4701Z" fill="white"/>
<path d="M52.5662 21.525H46.4854V18.1468C46.4854 16.2841 44.97 14.7687 43.1073 14.7687C41.2445 14.7687 39.7291 16.2841 39.7291 18.1468V21.525H39.0535C37.1907 21.525 35.6753 23.0405 35.6753 24.9032V33.0108C35.6753 34.8735 37.1907 36.389 39.0535 36.389H41.756V38.7807C41.756 39.6969 42.5019 40.4428 43.4181 40.4428C43.8147 40.4428 44.1991 40.3009 44.4998 40.0428L48.7623 36.389H52.5662C54.4289 36.389 55.9443 34.8735 55.9443 33.0108V24.9032C55.9443 23.0405 54.4289 21.525 52.5662 21.525ZM41.0804 26.9301V20.1738H42.4316V26.9301H41.0804ZM44.7166 28.2814L43.4809 30.7528C43.3383 31.0386 42.8762 31.038 42.7343 30.7528L41.4979 28.2814H44.7166ZM45.1342 26.9301H43.7829V20.1738H45.1342V26.9301ZM43.1073 16.1199C44.2248 16.1199 45.1342 17.0293 45.1342 18.1468V18.8225H41.0804V18.1468C41.0804 17.0293 41.9898 16.1199 43.1073 16.1199ZM54.5931 33.0108C54.5931 34.1283 53.6837 35.0377 52.5662 35.0377H48.2624L43.6201 39.0172C43.4329 39.1773 43.1073 39.026 43.1073 38.7807V35.0377H39.0535C37.936 35.0377 37.0266 34.1283 37.0266 33.0108V24.9032C37.0266 23.7857 37.936 22.8763 39.0535 22.8763H39.7291V27.7652L41.5249 31.3575C41.8269 31.9602 42.433 32.3352 43.1073 32.3352C43.7816 32.3352 44.3876 31.9602 44.6896 31.3575L46.4854 27.7652V22.8763H52.5662C53.6837 22.8763 54.5931 23.7857 54.5931 24.9032V33.0108Z" fill="white"/>
<path d="M47.8364 24.2277H53.2415V25.5789H47.8364V24.2277Z" fill="white"/>
<path d="M47.8364 26.9301H53.2415V28.2813H47.8364V26.9301Z" fill="white"/>
<path d="M47.8364 29.6327H53.2415V30.984H47.8364V29.6327Z" fill="white"/>
<path d="M49.1885 32.3351H50.5397V33.6864H49.1885V32.3351Z" fill="white"/>
<path d="M51.8911 32.3351H53.2424V33.6864H51.8911V32.3351Z" fill="white"/>
</svg>
