<svg width="71" height="71" viewBox="0 0 71 71" fill="none" xmlns="http://www.w3.org/2000/svg">
<circle cx="35.3438" cy="35.7134" r="35" fill="#B61D1D"/>
<path fill-rule="evenodd" clip-rule="evenodd" d="M27.4375 35.4635C27.8387 46.2737 43.3528 46.2656 43.7501 35.4634H37.225C36.3279 35.4634 35.5938 34.7293 35.5938 33.8322V30.5696C35.5938 29.6724 36.3278 28.9384 37.225 28.9384C36.3278 28.9384 35.5938 28.2043 35.5938 27.3071C31.0892 27.3072 27.4375 30.9588 27.4375 35.4635Z" fill="#EFAFAF"/>
<path d="M55.9748 17.5196C55.9748 16.1758 54.8816 15.0825 53.5378 15.0825H37.2251C35.8813 15.0825 34.788 16.1758 34.788 17.5196V20.7821C34.788 21.4088 35.0259 21.9811 35.416 22.4133C35.1973 22.6557 35.0265 22.942 34.9186 23.2572C25.5828 23.7006 20.2129 34.4162 25.3603 42.1442L15.6009 51.2993C15.0418 51.8237 14.7271 52.5434 14.7146 53.3257C14.6566 54.9595 16.0977 56.4009 17.7314 56.3426C18.514 56.3301 19.2337 56.0154 19.758 55.4565L28.9131 45.6969C36.5947 50.8155 47.2561 45.5358 47.7923 36.2693H53.5378C54.8816 36.2693 55.9748 35.176 55.9748 33.8322V30.5697C55.9748 29.943 55.737 29.3707 55.3469 28.9385C55.737 28.5062 55.9748 27.9339 55.9748 27.3072V24.0447C55.9748 23.418 55.737 22.8458 55.3469 22.4135C55.737 21.9812 55.9748 21.409 55.9748 20.7823V17.5196ZM18.5826 54.3537C18.1129 54.8759 17.2003 54.8356 16.7221 54.3353C16.2218 53.8568 16.1809 52.9446 16.7036 52.4747L23.9407 45.6857L25.3715 47.1164L18.5826 54.3537ZM26.4748 45.9404L25.1168 44.5825L26.3361 43.4387C26.7315 43.897 27.1602 44.3257 27.6185 44.7211L26.4748 45.9404ZM35.5939 46.0765C22.0029 45.6022 21.3472 26.3816 34.788 24.8813V27.3071C34.788 27.9339 35.0259 28.5061 35.416 28.9384C35.0259 29.3707 34.788 29.9429 34.788 30.5696V33.8321C34.788 35.176 35.8813 36.2692 37.2251 36.2692H46.176C45.7586 41.7314 41.1362 46.0765 35.5939 46.0765ZM54.3631 33.8322C54.3631 34.2873 53.9929 34.6576 53.5378 34.6576H37.2251C36.77 34.6576 36.3998 34.2873 36.3998 33.8322V30.5697C36.3998 30.1146 36.77 29.7443 37.2251 29.7443H53.5378C53.9929 29.7443 54.3631 30.1146 54.3631 30.5697V33.8322ZM54.3631 27.3071C54.3631 27.7622 53.9929 28.1325 53.5378 28.1325H37.2251C36.77 28.1325 36.3998 27.7622 36.3998 27.3071V24.0447C36.3998 23.5896 36.77 23.2193 37.2251 23.2193H53.5378C53.9929 23.2193 54.3631 23.5896 54.3631 24.0447V27.3071ZM54.3631 20.7822C54.3631 21.2373 53.9929 21.6076 53.5378 21.6076H37.2251C36.77 21.6076 36.3998 21.2373 36.3998 20.7822V17.5196C36.3998 17.0646 36.77 16.6943 37.2251 16.6943H53.5378C53.9929 16.6943 54.3631 17.0646 54.3631 17.5196V20.7822Z" fill="white"/>
<path d="M47.6242 18.345H43.1386C42.072 18.384 42.0699 19.9169 43.1386 19.9567H47.6242C48.0692 19.9567 48.4301 19.5958 48.4301 19.1508C48.4301 18.7058 48.0692 18.345 47.6242 18.345Z" fill="white"/>
<path d="M39.2647 18.345C38.8195 18.3446 38.4585 18.7056 38.4585 19.1509C38.4981 20.2184 40.0312 20.2186 40.0706 19.1509C40.0706 18.7059 39.7097 18.345 39.2647 18.345Z" fill="white"/>
<path d="M47.6242 31.395H43.1386C42.072 31.434 42.0699 32.9669 43.1386 33.0068H47.6242C48.0692 33.0068 48.4301 32.6459 48.4301 32.2009C48.4301 31.7559 48.0692 31.395 47.6242 31.395Z" fill="white"/>
<path d="M39.2647 31.395C38.8195 31.3946 38.4585 31.7557 38.4585 32.2009C38.4981 33.2685 40.0312 33.2686 40.0706 32.2009C40.0706 31.7558 39.7097 31.395 39.2647 31.395Z" fill="white"/>
<path d="M47.6242 24.8699H43.1386C42.072 24.9089 42.0699 26.4418 43.1386 26.4816H47.6242C48.0692 26.4816 48.4301 26.1207 48.4301 25.6757C48.4301 25.2307 48.0692 24.8699 47.6242 24.8699Z" fill="white"/>
<path d="M39.2647 24.8699C38.8195 24.8695 38.4585 25.2305 38.4585 25.6758C38.4981 26.7433 40.0312 26.7435 40.0706 25.6758C40.0706 25.2308 39.7097 24.8699 39.2647 24.8699Z" fill="white"/>
</svg>
