<svg width="71" height="71" viewBox="0 0 71 71" fill="none" xmlns="http://www.w3.org/2000/svg">
<circle cx="35.6875" cy="35.7134" r="35" fill="#B61D1D"/>
<path d="M30.0784 35.5811L27.9262 37.734C27.7903 37.8699 27.7139 38.0542 27.7138 38.2464V44.0454H27.2891L26.2641 43.0204V36.7967C26.2641 36.6045 26.1877 36.4201 26.0517 36.2842L22.4274 32.6599C22.2915 32.524 22.1072 32.4476 21.9149 32.4475H16.8409V29.1233L19.5279 26.4362C19.6639 26.3003 19.7403 26.116 19.7403 25.9237V21.5745C19.7403 21.3823 19.664 21.1979 19.528 21.062C19.3921 20.926 19.2077 20.8497 19.0155 20.8497H15.3911V17.9502H24.8144V18.6751C24.8144 18.8673 24.8907 19.0517 25.0267 19.1876C25.1626 19.3236 25.347 19.3999 25.5392 19.3999H28.8635L31.1881 21.7246C31.3241 21.8605 31.5084 21.9368 31.7006 21.9368C31.8928 21.9368 32.0771 21.8605 32.2131 21.7246L35.2626 18.6751H38.5868V19.3999H40.0365V17.9502C40.0365 17.758 39.9602 17.5736 39.8242 17.4377C39.6883 17.3017 39.5039 17.2254 39.3117 17.2254H34.9625C34.7703 17.2254 34.5859 17.3018 34.45 17.4377L31.7006 20.1872L29.6761 18.1626C29.5401 18.0267 29.3558 17.9503 29.1636 17.9502H26.2641V17.2254C26.2641 17.0331 26.1877 16.8487 26.0518 16.7128C25.9159 16.5769 25.7315 16.5005 25.5392 16.5005H14.6663C14.474 16.5005 14.2897 16.5769 14.1537 16.7128C14.0178 16.8487 13.9414 17.0331 13.9414 17.2254V21.5745C13.9414 21.7668 14.0178 21.9512 14.1537 22.0871C14.2897 22.223 14.474 22.2994 14.6663 22.2994H18.2906V25.6236L15.6035 28.3107C15.4676 28.4466 15.3912 28.631 15.3911 28.8232V33.1724C15.3911 33.3646 15.4675 33.549 15.6034 33.6849C15.7394 33.8209 15.9238 33.8972 16.116 33.8972H21.6148L24.8144 37.0968V43.3205C24.8144 43.5127 24.8908 43.6971 25.0268 43.833L26.4765 45.2827C26.6124 45.4186 26.7967 45.495 26.989 45.4951H28.4387C28.631 45.4951 28.8153 45.4187 28.9513 45.2828C29.0872 45.1468 29.1636 44.9625 29.1636 44.7702V38.5465L31.1033 36.6061L30.0784 35.5811Z" fill="white"/>
<path d="M56.709 16.5005H43.6614C43.4691 16.5005 43.2848 16.5769 43.1488 16.7128C43.0129 16.8487 42.9365 17.0331 42.9365 17.2254V20.8497H44.3863V17.9502H55.9841V24.25L54.7634 25.3953C54.6912 25.4631 54.6336 25.5449 54.5942 25.6358C54.5548 25.7267 54.5344 25.8247 54.5344 25.9237V33.6878L51.8473 36.3748C51.7113 36.5107 51.6349 36.6951 51.6349 36.8873V42.6775L50.3831 44.0548L49.4603 43.04V34.6221C49.4603 34.4299 49.3839 34.2455 49.248 34.1096C49.1121 33.9736 48.9277 33.8972 48.7354 33.8972H45.836V35.347H48.0106V43.3205C48.0105 43.5009 48.0777 43.6748 48.199 43.8083L49.8467 45.6205C49.9146 45.6952 49.9974 45.755 50.0898 45.7958C50.1822 45.8367 50.2821 45.8578 50.3831 45.8578C50.4841 45.8578 50.584 45.8367 50.6763 45.7958C50.7687 45.755 50.8515 45.6952 50.9195 45.6205L52.8962 43.4459C53.0175 43.3124 53.0847 43.1385 53.0846 42.9581V37.1874L55.7717 34.5003C55.9077 34.3644 55.9841 34.1801 55.9841 33.9879V26.2383L57.2048 25.093C57.277 25.0253 57.3346 24.9434 57.374 24.8526C57.4134 24.7617 57.4338 24.6637 57.4338 24.5646V17.2254C57.4338 17.0331 57.3575 16.8487 57.2215 16.7128C57.0856 16.5769 56.9012 16.5005 56.709 16.5005Z" fill="white"/>
<path d="M36.1856 20.2837C35.9836 20.3233 35.7837 20.3699 35.5861 20.4236C35.3411 20.4903 35.1012 20.5686 34.8612 20.6584C33.7561 21.0628 32.7449 21.688 31.8893 22.496C31.0279 23.3091 30.3416 24.2895 29.8726 25.3772C29.4036 26.4649 29.1616 27.637 29.1616 28.8215C29.1616 30.006 29.4036 31.1781 29.8726 32.2658C30.3416 33.3535 31.0279 34.334 31.8893 35.147C33.0854 36.2791 34.5787 37.0478 36.195 37.3637C36.7446 37.468 37.3027 37.5209 37.8622 37.5217C38.1391 37.5217 38.4181 37.5086 38.6972 37.4818C38.9763 37.455 39.2583 37.4159 39.5388 37.363C39.7408 37.3233 39.9406 37.2767 40.1383 37.2231C41.5214 36.8479 42.79 36.1359 43.8307 35.1507C44.6921 34.3376 45.3784 33.3571 45.8474 32.2694C46.3164 31.1817 46.5584 30.0097 46.5584 28.8251C46.5584 27.6406 46.3164 26.4685 45.8474 25.3808C45.3784 24.2931 44.6921 23.3127 43.8307 22.4996C42.6359 21.3693 41.1448 20.6014 39.5308 20.2851C38.4257 20.0747 37.2909 20.0742 36.1856 20.2837ZM41.3176 22.4583C41.5104 22.5634 41.6974 22.6757 41.8801 22.8011C41.9577 22.8526 42.0374 22.9012 42.1128 22.9563C42.1447 22.9795 42.1729 23.0077 42.2041 23.0287C41.942 23.2238 41.6672 23.401 41.3814 23.5593C41.2344 23.1116 41.0651 22.6716 40.874 22.2408C40.9255 22.264 40.9791 22.2829 41.0306 22.3075C41.1277 22.3582 41.2226 22.4075 41.3176 22.459V22.4583ZM45.0746 28.0985H42.1882C42.1468 27.053 42.0082 26.0136 41.7743 24.9939C42.3117 24.7234 42.8194 24.3977 43.2892 24.0218C44.3048 25.1549 44.9305 26.5837 45.0746 28.0985ZM43.2892 33.6248C42.8197 33.2487 42.3119 32.9229 41.7743 32.6528C42.0081 31.633 42.1467 30.5936 42.1882 29.5482H45.0746C44.9305 31.063 44.3048 32.4917 43.2892 33.6248ZM42.1142 34.6889C42.0359 34.7455 41.9548 34.7955 41.875 34.8484C41.6943 34.9692 41.5092 35.0818 41.3198 35.1862C41.2231 35.2384 41.1265 35.2884 41.0298 35.3362C40.9791 35.3609 40.9255 35.379 40.874 35.4029C41.0625 34.9781 41.2316 34.5386 41.3814 34.0844C41.6677 34.2419 41.9426 34.4192 42.2041 34.615C42.1729 34.6382 42.1454 34.6657 42.1142 34.6889ZM34.6931 35.3355C34.5967 35.2884 34.5017 35.2391 34.4067 35.1905C34.2139 35.0854 34.0269 34.9731 33.8442 34.8477C33.7667 34.7962 33.687 34.7476 33.6116 34.6925C33.5797 34.6694 33.5514 34.6411 33.5202 34.6201C33.7823 34.4251 34.0572 34.2478 34.343 34.0895C34.49 34.5372 34.6593 34.9772 34.8504 35.408C34.7982 35.379 34.7453 35.3601 34.6931 35.3355ZM30.6498 29.5482H33.5362C33.5776 30.5936 33.7161 31.633 33.9501 32.6528C33.4126 32.9232 32.9049 33.249 32.4351 33.6248C31.4196 32.4917 30.7939 31.063 30.6498 29.5482ZM32.4351 24.0218C32.9047 24.398 33.4125 24.7238 33.9501 24.9939C33.7162 26.0137 33.5777 27.053 33.5362 28.0985H30.6498C30.7938 26.5837 31.4195 25.1549 32.4351 24.0218ZM33.6101 22.9577C33.6884 22.9012 33.7696 22.8512 33.8493 22.7982C34.0301 22.6769 34.2151 22.5643 34.4046 22.4605C34.5012 22.4083 34.5979 22.3582 34.6945 22.3104C34.7453 22.2858 34.7989 22.2676 34.8504 22.2437C34.6619 22.6685 34.4928 23.108 34.343 23.5622C34.0567 23.4048 33.7818 23.2275 33.5202 23.0316C33.5514 23.0084 33.5789 22.9809 33.6101 22.9577ZM35.3092 32.1019C35.1309 31.2611 35.0227 30.4069 34.9859 29.5482H37.1373V31.7612C36.5176 31.8097 35.9048 31.9239 35.3092 32.1019ZM37.1373 21.6167V24.4357C36.6426 24.3868 36.1542 24.2877 35.6796 24.14C35.9488 23.2767 36.3135 22.4462 36.7669 21.6638C36.8459 21.6522 36.9249 21.6392 37.0047 21.6305L37.1373 21.6167ZM35.3092 25.5462C35.9046 25.7255 36.5174 25.8404 37.1373 25.8891V28.0985H34.9859C35.0225 27.2402 35.1306 26.3865 35.3092 25.5462ZM38.587 33.2109C39.0817 33.2599 39.5701 33.359 40.0447 33.5067C39.7756 34.3699 39.4109 35.2005 38.9574 35.9828C38.8799 35.9944 38.8023 36.0067 38.7248 36.0154L38.587 36.0299V33.2109ZM40.4151 32.1019C39.8196 31.9238 39.2068 31.8096 38.587 31.7612V29.5482H40.7384C40.7018 30.4069 40.5937 31.2611 40.4151 32.1019ZM38.587 28.0985V25.8891C39.207 25.8405 39.8199 25.7253 40.4151 25.5455C40.5938 26.386 40.702 27.2399 40.7384 28.0985H38.587ZM38.587 24.4357V21.6276C38.6675 21.6356 38.7472 21.6348 38.8277 21.6457C38.8705 21.6508 38.914 21.6573 38.9574 21.6638C39.4108 22.4459 39.7755 23.2762 40.0447 24.1392C39.5702 24.2874 39.0818 24.3867 38.587 24.4357ZM37.1373 33.2109V36.0299L36.9989 36.0154C36.9213 36.0067 36.8445 35.9944 36.7669 35.9828C36.3135 35.2007 35.9488 34.3704 35.6796 33.5074C36.1542 33.3592 36.6426 33.2599 37.1373 33.2109Z" fill="#EFAFAF"/>
<path d="M40.7618 44.0453V43.3205C40.7618 42.7437 40.5327 42.1906 40.1249 41.7828C39.717 41.375 39.1639 41.1459 38.5872 41.1459C38.0105 41.1459 37.4573 41.375 37.0495 41.7828C36.6417 42.1906 36.4126 42.7437 36.4126 43.3205V44.0453C36.4126 44.6221 36.6417 45.1752 37.0495 45.583C37.4573 45.9908 38.0105 46.2199 38.5872 46.2199C39.1639 46.2199 39.717 45.9908 40.1249 45.583C40.5327 45.1752 40.7618 44.6221 40.7618 44.0453ZM39.3121 44.0453C39.3121 44.2376 39.2357 44.422 39.0998 44.5579C38.9638 44.6938 38.7794 44.7702 38.5872 44.7702C38.3949 44.7702 38.2106 44.6938 38.0746 44.5579C37.9387 44.422 37.8623 44.2376 37.8623 44.0453V43.3205C37.8623 43.1282 37.9387 42.9438 38.0746 42.8079C38.2106 42.672 38.3949 42.5956 38.5872 42.5956C38.7794 42.5956 38.9638 42.672 39.0998 42.8079C39.2357 42.9438 39.3121 43.1282 39.3121 43.3205V44.0453Z" fill="white"/>
<path d="M44.8148 41.6845L40.2866 46.22H36.887L32.3529 41.6802C32.0135 41.3455 31.5562 41.1574 31.0795 41.1566C30.6028 41.1558 30.1449 41.3423 29.8043 41.6758C29.6339 41.8442 29.4985 42.0446 29.4058 42.2654C29.3131 42.4863 29.265 42.7233 29.2642 42.9628C29.2634 43.2024 29.3099 43.4397 29.4011 43.6612C29.4923 43.8827 29.6264 44.0839 29.7956 44.2534L34.9625 49.4196V59.2676C34.9625 59.4598 35.0388 59.6442 35.1748 59.7801C35.3107 59.9161 35.4951 59.9924 35.6873 59.9924H41.4862C41.6785 59.9924 41.8629 59.9161 41.9988 59.7801C42.1347 59.6442 42.2111 59.4598 42.2111 59.2676V49.4196L47.3772 44.2534C47.5461 44.0857 47.68 43.8861 47.7712 43.6663C47.8624 43.4464 47.9091 43.2106 47.9085 42.9726C47.9112 42.7332 47.8655 42.4957 47.7743 42.2744C47.683 42.053 47.5479 41.8524 47.3772 41.6845C47.0357 41.348 46.5755 41.1593 46.096 41.1593C45.6165 41.1593 45.1563 41.348 44.8148 41.6845ZM46.3523 43.2285L40.9738 48.607C40.8378 48.7429 40.7614 48.9272 40.7614 49.1195V58.5427H39.3116V52.7438H37.8619V58.5427H36.4122V49.1195C36.4121 48.9272 36.3358 48.7429 36.1998 48.607L30.8213 43.2285C30.7871 43.1953 30.76 43.1555 30.7417 43.1115C30.7234 43.0675 30.7142 43.0203 30.7147 42.9726C30.7135 42.9238 30.7224 42.8753 30.7407 42.83C30.759 42.7847 30.7865 42.7437 30.8213 42.7095C30.89 42.6431 30.9817 42.6061 31.0772 42.6061C31.1727 42.6061 31.2644 42.6431 31.3331 42.7095L36.0737 47.4574C36.2096 47.5933 36.3939 47.6697 36.5862 47.6697H40.5874C40.7796 47.6697 40.964 47.5933 41.0999 47.4574L45.8354 42.7138C45.9057 42.6448 46.0006 42.6065 46.0991 42.6073C46.1976 42.6081 46.2918 42.648 46.361 42.7182C46.4245 42.7879 46.459 42.8793 46.4574 42.9736C46.4558 43.068 46.4182 43.1581 46.3523 43.2256V43.2285Z" fill="white"/>
</svg>
