<svg width="71" height="71" viewBox="0 0 71 71" fill="none" xmlns="http://www.w3.org/2000/svg">
<circle cx="35.0312" cy="35.7134" r="35" fill="#B61D1D"/>
<path d="M44.0688 20.8661H18.2476V33.1312H33.0948L34.3858 35.7133H44.0688V20.8661Z" fill="#EFAFAF"/>
<path d="M31.1581 35.0679H20.1841V36.3589H31.1581V35.0679Z" fill="white"/>
<path d="M50.5237 32.4857V15.7019H24.7024V20.8662H25.9935V16.993H49.2326V45.3963H47.9415V37.0044C47.9415 35.9367 47.0726 35.0678 46.0049 35.0678H34.7843L34.0284 33.556C33.6985 32.8963 33.0349 32.4857 32.2964 32.4857H18.8926C17.8249 32.4857 16.9561 33.3546 16.9561 34.4223V52.4972C16.9561 54.2769 18.404 55.7248 20.1837 55.7248H49.8781C51.6578 55.7248 53.1058 54.2769 53.1058 52.4972V32.4857H50.5237ZM20.1837 54.4338C19.116 54.4338 18.2471 53.5649 18.2471 52.4972V38.941H42.7773V37.65H18.2471V34.4223C18.2471 34.066 18.537 33.7768 18.8926 33.7768H32.2964C32.5424 33.7768 32.7638 33.9136 32.8736 34.1337L33.9864 36.3589H46.0049C46.3606 36.3589 46.6505 36.6481 46.6505 37.0044V37.65H44.0683V38.941H46.6505V52.4972C46.6505 53.2234 46.8919 53.8941 47.2973 54.4338H20.1837ZM51.8147 52.4972C51.8147 53.5649 50.9458 54.4338 49.8781 54.4338C48.8104 54.4338 47.9415 53.5649 47.9415 52.4972V46.6874H50.5237V33.7768H51.8147V52.4972Z" fill="white"/>
<path d="M47.9417 18.2841H27.2847V19.5751H47.9417V18.2841Z" fill="white"/>
<path d="M47.9415 20.8661H44.0684V22.1572H47.9415V20.8661Z" fill="white"/>
<path d="M47.9415 23.4482H44.0684V24.7393H47.9415V23.4482Z" fill="white"/>
<path d="M47.9415 26.0304H44.0684V27.3215H47.9415V26.0304Z" fill="white"/>
<path d="M47.9415 28.6125H44.0684V29.9036H47.9415V28.6125Z" fill="white"/>
<path d="M47.9415 31.1947H44.0684V32.4858H47.9415V31.1947Z" fill="white"/>
<path d="M28.5755 23.4482H20.8291V31.1946H28.5755V23.4482ZM27.2844 29.9035H22.1202V24.7393H27.2844V29.9035Z" fill="white"/>
<path d="M41.4863 23.4482H29.8667V24.7393H41.4863V23.4482Z" fill="white"/>
<path d="M41.4863 26.0304H29.8667V27.3215H41.4863V26.0304Z" fill="white"/>
<path d="M41.4863 28.6125H29.8667V29.9036H41.4863V28.6125Z" fill="white"/>
<path d="M41.4866 31.1947H35.0312V32.4858H41.4866V31.1947Z" fill="white"/>
<path d="M19.5381 51.8516H28.5755V42.8142H19.5381V51.8516ZM20.8291 44.1053H27.2845V50.5606H20.8291V44.1053Z" fill="white"/>
<path d="M45.3593 50.5605H32.4487V51.8516H45.3593V50.5605Z" fill="white"/>
<path d="M45.3593 47.9784H32.4487V49.2695H45.3593V47.9784Z" fill="white"/>
<path d="M45.3593 45.3964H32.4487V46.6874H45.3593V45.3964Z" fill="white"/>
<path d="M45.3593 42.8142H32.4487V44.1053H45.3593V42.8142Z" fill="white"/>
<path d="M31.1578 42.8142H29.8667V44.1053H31.1578V42.8142Z" fill="white"/>
<path d="M31.1578 45.3964H29.8667V46.6874H31.1578V45.3964Z" fill="white"/>
<path d="M31.1578 47.9784H29.8667V49.2695H31.1578V47.9784Z" fill="white"/>
<path d="M31.1578 50.5605H29.8667V51.8516H31.1578V50.5605Z" fill="white"/>
</svg>
