<svg width="70" height="70" viewBox="0 0 70 70" fill="none" xmlns="http://www.w3.org/2000/svg">
<circle cx="35" cy="35" r="35" fill="#B61D1D"/>
<path d="M39.6711 36.2093V52.3501C39.6711 53.4537 38.7728 54.352 37.6692 54.352C36.5656 54.352 35.6673 53.4537 35.6673 52.3501V49.0135H22.3212V50.3481H34.3327V52.3501C34.3327 53.104 34.5937 53.7929 35.0172 54.352H17.65C16.5464 54.352 15.6481 53.4537 15.6481 52.3501V50.3481H20.9865V25.6578C20.9865 24.5542 21.8849 23.6559 22.9885 23.6559H35.9934V22.3213H22.9885C21.1488 22.3213 19.6519 23.8182 19.6519 25.6578V49.0135H14.3135V52.3501C14.3135 54.1897 15.8104 55.6866 17.65 55.6866H37.6692C39.5089 55.6866 41.0057 54.1897 41.0057 52.3501V36.2093H39.6711Z" fill="white"/>
<path d="M55.5909 24.6466C54.3436 22.5681 53.6844 20.1879 53.6844 17.7627V16.3154H53.0171C51.4896 16.3154 50.3479 15.6106 50.3479 14.9808V14.3135H39.671V14.9808C39.671 15.6106 38.5293 16.3154 37.0017 16.3154H36.3344V17.7627C36.3344 20.1879 35.6753 22.5681 34.428 24.6466L34.3325 24.8056V24.9904C34.3325 30.5892 37.4015 35.7028 42.3402 38.3358L45.0094 39.7604L47.6786 38.3365C52.6173 35.7028 55.6863 30.5892 55.6863 24.9904V24.8056L55.5909 24.6466ZM49.6806 28.8075C49.6806 31.6827 47.7741 34.2098 45.0094 35C42.2447 34.2098 40.3383 31.6827 40.3383 28.8075V25.6577H49.6806V28.8075Z" fill="#EFAFAF"/>
<path d="M49.0132 24.9905V20.9866C49.0132 18.7785 47.2175 16.9828 45.0093 16.9828C42.8012 16.9828 41.0055 18.7785 41.0055 20.9866V24.9905H39.6709V28.8076C39.6709 31.9639 41.7908 34.7746 44.8259 35.6419L45.0093 35.6941L45.1928 35.6419C48.2279 34.7746 50.3478 31.9639 50.3478 28.8076V24.9905H49.0132ZM42.3401 20.9866C42.3401 19.5145 43.5372 18.3174 45.0093 18.3174C46.4815 18.3174 47.6786 19.5145 47.6786 20.9866V24.9905H42.3401V20.9866ZM49.0132 28.8076C49.0132 31.3077 47.3762 33.5407 45.0093 34.3028C42.6425 33.54 41.0055 31.3077 41.0055 28.8076V26.3251H49.0132V28.8076Z" fill="white"/>
<path d="M47.0112 29.6615C47.0112 28.5579 46.1128 27.6595 45.0092 27.6595C43.9056 27.6595 43.0073 28.5579 43.0073 29.6615C43.0073 30.5301 43.5671 31.2642 44.3419 31.5405V32.998H45.6765V31.5405C46.4514 31.2642 47.0112 30.5301 47.0112 29.6615ZM45.0092 30.3288C44.6417 30.3288 44.3419 30.0297 44.3419 29.6615C44.3419 29.2933 44.6417 28.9942 45.0092 28.9942C45.3768 28.9942 45.6765 29.2933 45.6765 29.6615C45.6765 30.0297 45.3768 30.3288 45.0092 30.3288Z" fill="white"/>
<path d="M26.3246 47.6789H22.3208V39.6713H26.3246V47.6789Z" fill="#EFAFAF"/>
<path d="M31.6635 47.6789H27.6597V37.002H31.6635V47.6789Z" fill="#EFAFAF"/>
<path d="M37.0019 47.6789H32.998V41.0059H37.0019V47.6789Z" fill="#EFAFAF"/>
<path d="M34.9996 35.6673C34.59 35.6673 34.2088 35.7921 33.8911 36.0042L31.5637 34.2587C31.6224 34.0697 31.6631 33.8729 31.6631 33.6654C31.6631 32.5618 30.7648 31.6635 29.6612 31.6635C28.5576 31.6635 27.6593 32.5618 27.6593 33.6654C27.6593 33.7481 27.6739 33.8276 27.684 33.9081L25.7088 34.896C25.3484 34.549 24.8613 34.3327 24.3227 34.3327C23.2191 34.3327 22.3208 35.231 22.3208 36.3346C22.3208 37.4382 23.2191 38.3365 24.3227 38.3365C25.4263 38.3365 26.3246 37.4382 26.3246 36.3346C26.3246 36.2518 26.31 36.1723 26.2999 36.0925L28.2751 35.1049C28.6354 35.4509 29.1226 35.6673 29.6612 35.6673C30.0707 35.6673 30.452 35.5425 30.7697 35.331L33.0977 37.0772C33.0384 37.2655 32.9977 37.4617 32.9977 37.6692C32.9977 38.7728 33.896 39.6711 34.9996 39.6711C36.1032 39.6711 37.0015 38.7728 37.0015 37.6692C37.0015 36.5656 36.1032 35.6673 34.9996 35.6673ZM24.3227 37.0019C23.9552 37.0019 23.6554 36.7028 23.6554 36.3346C23.6554 35.9664 23.9552 35.6673 24.3227 35.6673C24.6903 35.6673 24.99 35.9664 24.99 36.3346C24.99 36.7028 24.6903 37.0019 24.3227 37.0019ZM29.6612 34.3327C29.2936 34.3327 28.9939 34.0336 28.9939 33.6654C28.9939 33.2972 29.2936 32.9981 29.6612 32.9981C30.0287 32.9981 30.3285 33.2972 30.3285 33.6654C30.3285 34.0336 30.0287 34.3327 29.6612 34.3327ZM34.9996 38.3365C34.6321 38.3365 34.3323 38.0374 34.3323 37.6692C34.3323 37.301 34.6321 37.0019 34.9996 37.0019C35.3672 37.0019 35.6669 37.301 35.6669 37.6692C35.6669 38.0374 35.3672 38.3365 34.9996 38.3365Z" fill="white"/>
<path d="M22.3208 24.9905H23.6554V26.3251H22.3208V24.9905Z" fill="white"/>
<path d="M24.9902 24.9905H32.9979V26.3251H24.9902V24.9905Z" fill="white"/>
<path d="M24.9902 27.6595H32.9979V28.9942H24.9902V27.6595Z" fill="white"/>
<path d="M22.3208 27.6595H23.6554V28.9942H22.3208V27.6595Z" fill="white"/>
<path d="M31.6636 51.6826H32.9982V53.0172H31.6636V51.6826Z" fill="white"/>
<path d="M16.9829 51.6826H30.329V53.0172H16.9829V51.6826Z" fill="white"/>
</svg>
