<svg width="71" height="70" viewBox="0 0 71 70" fill="none" xmlns="http://www.w3.org/2000/svg">
<circle cx="35.3438" cy="35" r="35" fill="#B61D1D"/>
<path d="M35.344 36.2966C34.6277 36.2966 34.0476 35.7165 34.0476 35.0002C34.0476 34.2839 34.6277 33.7038 35.344 33.7038C35.5813 33.7038 35.8011 33.7725 35.9923 33.8833V15.5703C35.7765 15.5631 35.5613 15.5541 35.344 15.5541C24.6039 15.5541 15.8979 24.26 15.8979 35.0002C15.8979 45.7404 24.604 54.4463 35.344 54.4463C35.5611 54.4463 35.7765 54.4371 35.9923 54.4301V36.117C35.8009 36.2279 35.5812 36.2966 35.344 36.2966Z" fill="#EFAFAF"/>
<path d="M54.1011 36.2545L55.3949 36.3394C55.4233 35.8973 55.4383 35.4462 55.4383 35.0002H54.1419C54.1419 35.4215 54.1283 35.8396 54.1011 36.2545Z" fill="white"/>
<path d="M21.2315 47.4197L20.2593 48.2779C20.8388 48.9339 21.4636 49.5567 22.1177 50.1291L22.9713 49.1529C22.3594 48.6182 21.774 48.0342 21.2315 47.4197Z" fill="white"/>
<path d="M24.2026 51.7257C24.9299 52.2105 25.6949 52.6526 26.4771 53.0376L27.0502 51.874C26.3184 51.5137 25.6028 51.1015 24.9221 50.6464L24.2026 51.7257Z" fill="white"/>
<path d="M28.9053 54.0405C29.7311 54.3198 30.5854 54.5475 31.4443 54.7166L31.6944 53.4441C30.8913 53.2866 30.0927 53.0739 29.3201 52.8121L28.9053 54.0405Z" fill="white"/>
<path d="M50.9678 45.4568L52.0444 46.1782C52.5306 45.4529 52.974 44.6879 53.3609 43.9057L52.1993 43.3307C51.837 44.0619 51.4229 44.7775 50.9678 45.4568Z" fill="white"/>
<path d="M16.9137 38.7194L15.6426 38.9741C15.8143 39.8291 16.0444 40.6822 16.3271 41.5085L17.5541 41.0898C17.2897 40.316 17.0738 39.5186 16.9137 38.7194Z" fill="white"/>
<path d="M17.3379 43.9298C17.7255 44.7103 18.1695 45.4739 18.657 46.1979L19.7324 45.4751C19.2768 44.7971 18.8619 44.0835 18.4989 43.3529L17.3379 43.9298Z" fill="white"/>
<path d="M34.1308 53.7591L34.0479 55.0535C34.4763 55.0808 34.9087 55.0943 35.3443 55.0943C35.7883 55.0943 36.2355 55.0801 36.6718 55.0516L36.5869 53.7578C35.7753 53.8109 34.943 53.8115 34.1308 53.7591Z" fill="white"/>
<path d="M53.1426 41.0634L54.3703 41.4814C54.6515 40.6563 54.8811 39.802 55.0516 38.9437L53.7798 38.6902C53.6203 39.4929 53.4057 40.2908 53.1426 41.0634Z" fill="white"/>
<path d="M39.0215 53.4382L39.2743 54.7093C40.1305 54.5395 40.9836 54.3113 41.8107 54.0306L41.3932 52.8022C40.6206 53.0655 39.8227 53.2788 39.0215 53.4382Z" fill="white"/>
<path d="M47.7324 49.1394L48.5867 50.1143C49.2414 49.5407 49.8663 48.9163 50.4432 48.2598L49.4695 47.4041C48.9297 48.018 48.345 48.602 47.7324 49.1394Z" fill="white"/>
<path d="M43.6592 51.8644L44.2335 53.0267C45.0139 52.641 45.7781 52.1989 46.5048 51.7127L45.784 50.6354C45.104 51.0899 44.389 51.5034 43.6592 51.8644Z" fill="white"/>
<path d="M16.5459 35.0001C16.5459 24.6347 24.9784 16.2022 35.3439 16.2022C38.6789 16.2022 41.9096 17.0786 44.7642 18.7359L42.8812 19.4892L43.3628 20.6929L47.0115 19.2338V15.554H45.7151V17.8007C42.5894 15.9111 39.0269 14.9058 35.3439 14.9058C24.2641 14.9058 15.2495 23.9203 15.2495 35.0001C15.2495 35.4461 15.2644 35.8972 15.2929 36.3387L16.5867 36.2538C16.5595 35.8395 16.5459 35.4213 16.5459 35.0001Z" fill="white"/>
<path d="M49.6046 30.4627C49.6046 30.0893 49.4937 29.7432 49.3103 29.447L52.8617 23.8666C53.0607 23.9353 53.2713 23.9807 53.4936 23.9807C54.5658 23.9807 55.4383 23.1082 55.4383 22.036C55.4383 20.9637 54.5659 20.0915 53.4938 20.0915C52.4217 20.0915 51.5491 20.9639 51.5491 22.0361C51.5491 22.4095 51.66 22.7556 51.8434 23.0518L48.2918 28.6322C48.0929 28.5635 47.8821 28.5182 47.6599 28.5182C47.1485 28.5182 46.6862 28.7205 46.3389 29.0439L43.7434 27.4868C43.7557 27.3993 43.7707 27.3125 43.7707 27.2218C43.7707 26.1496 42.8982 25.2771 41.826 25.2771C40.7537 25.2771 39.8813 26.1495 39.8813 27.2218C39.8813 27.5582 39.9753 27.8706 40.1263 28.1467L36.0816 33.2028C36.0531 33.1912 36.0213 33.1852 35.9921 33.1749V18.795H35.3438C26.4084 18.795 19.1387 26.0646 19.1387 35.0002C19.1387 43.9358 26.4085 51.2052 35.3441 51.2052H35.9922V36.8255C36.7448 36.5571 37.2886 35.8441 37.2886 35.0002C37.2886 34.6638 37.1946 34.3514 37.0436 34.0752L41.0884 29.0192C41.3166 29.1132 41.5648 29.1663 41.826 29.1663C42.3374 29.1663 42.7996 28.964 43.147 28.6405L45.7425 30.1975C45.7301 30.285 45.7152 30.3719 45.7152 30.4626C45.7152 31.5347 46.5876 32.4072 47.6599 32.4072C48.7321 32.4072 49.6046 31.5348 49.6046 30.4627ZM53.4938 21.3879C53.851 21.3879 54.1421 21.6789 54.1421 22.0361C54.1421 22.3933 53.851 22.6844 53.4938 22.6844C53.1366 22.6844 52.8455 22.3933 52.8455 22.0361C52.8455 21.6789 53.1366 21.3879 53.4938 21.3879ZM34.6958 27.842C32.7434 27.7434 30.9764 27.2236 29.4933 26.5675C31.1352 23.3556 33.4221 21.4656 34.6958 20.5976V27.842ZM28.3583 26.0154C26.9531 25.2679 25.8984 24.4739 25.3118 23.9865C27.4152 22.069 30.0664 20.7448 33.0007 20.2794C31.6045 21.4202 29.763 23.2911 28.3583 26.0154ZM27.8016 27.2042C26.9562 29.1844 26.3652 31.5543 26.2842 34.3519H20.4515C20.6078 30.7169 22.0733 27.4167 24.3854 24.9076C25.0149 25.4456 26.196 26.3576 27.8016 27.2042ZM26.284 35.6483C26.3644 38.4466 26.9562 40.8164 27.8014 42.7961C26.1958 43.6426 25.0147 44.5546 24.3854 45.092C22.0728 42.5835 20.6078 39.2835 20.4515 35.6483H26.284ZM28.3583 43.9849C29.763 46.7093 31.6045 48.58 33.0007 49.7209C30.0657 49.2554 27.4145 47.9312 25.3118 46.0138C25.8984 45.5263 26.9531 44.7316 28.3583 43.9849ZM29.5186 43.4222C30.9966 42.7708 32.7545 42.2568 34.6958 42.1588V49.3895C33.4332 48.5106 31.1612 46.6062 29.5186 43.4222ZM34.6958 40.8612C32.527 40.9591 30.5836 41.5197 28.9651 42.2334C28.1976 40.4087 27.6596 38.2262 27.5811 35.6489H33.5193C33.7151 36.1979 34.1474 36.6303 34.6965 36.8261V40.8612H34.6958ZM33.5188 34.3519H27.5799C27.6571 31.7642 28.1867 29.5799 28.9438 27.7584C30.5668 28.476 32.518 29.0413 34.696 29.1391V33.1747C34.1468 33.3705 33.7144 33.8029 33.5188 34.3519ZM35.3441 35.6483C34.9869 35.6483 34.6958 35.3572 34.6958 35.0001C34.6958 34.6429 34.9869 34.3518 35.3441 34.3518C35.7013 34.3518 35.9924 34.6429 35.9924 35.0001C35.9922 35.3572 35.7011 35.6483 35.3441 35.6483ZM41.8261 27.8699C41.4689 27.8699 41.1779 27.5788 41.1779 27.2216C41.1779 26.8644 41.4689 26.5733 41.8261 26.5733C42.1833 26.5733 42.4744 26.8644 42.4744 27.2216C42.4744 27.5788 42.1832 27.8699 41.8261 27.8699ZM47.6599 31.111C47.3027 31.111 47.0116 30.8199 47.0116 30.4627C47.0116 30.1055 47.3027 29.8144 47.6599 29.8144C48.0171 29.8144 48.3082 30.1055 48.3082 30.4627C48.3082 30.8199 48.0171 31.111 47.6599 31.111Z" fill="white"/>
</svg>
