<svg width="71" height="70" viewBox="0 0 71 70" fill="none" xmlns="http://www.w3.org/2000/svg">
<circle cx="35.6875" cy="35" r="35" fill="#B61D1D"/>
<path d="M35.6879 26.4054C32.5746 26.4054 30.0415 23.8723 30.0415 20.759C30.0415 17.6457 32.5746 15.1125 35.6879 15.1125C38.8012 15.1125 41.3343 17.6457 41.3343 20.759C41.3343 23.8723 38.8012 26.4054 35.6879 26.4054ZM35.6879 16.5242C33.3524 16.5242 31.4531 18.4235 31.4531 20.759C31.4531 23.0945 33.3524 24.9938 35.6879 24.9938C38.0234 24.9938 39.9227 23.0945 39.9227 20.759C39.9227 18.4235 38.0234 16.5242 35.6879 16.5242Z" fill="#EFAFAF"/>
<path d="M34.9819 22.8764C34.8012 22.8764 34.6205 22.8072 34.4829 22.6696L33.0713 21.258L34.0693 20.26L34.9819 21.1726L38.0119 18.1426L39.0099 19.1406L35.4809 22.6696C35.3433 22.8072 35.1626 22.8764 34.9819 22.8764Z" fill="#EFAFAF"/>
<path d="M56.156 28.5227H19.4543V23.5821C19.4543 22.4175 20.4071 21.4647 21.5717 21.4647H27.6345L26.0112 23.081L27.0134 24.0832L29.8366 21.26C29.9707 21.1259 30.0413 20.9424 30.0413 20.7589C30.0413 20.5754 29.9707 20.3919 29.8366 20.2578L27.0134 17.4346L26.0112 18.4368L27.6345 20.0531H21.5717C19.6237 20.0531 18.0427 21.6341 18.0427 23.5821V28.5227H15.2195C14.8313 28.5227 14.5137 28.8403 14.5137 29.2285V44.0504C14.5137 44.4385 14.8313 44.7562 15.2195 44.7562H22.3481C22.6092 45.9631 23.6962 46.8736 24.9807 46.8736C25.0231 46.8736 25.0654 46.8736 25.1078 46.8665C25.1007 46.9088 25.1007 46.9512 25.1007 46.9935C25.1007 48.4828 26.3147 49.6968 27.8039 49.6968C27.8463 49.6968 27.8886 49.6968 27.931 49.6897C27.9239 49.7321 27.9239 49.7744 27.9239 49.8167C27.9239 51.306 29.1379 52.52 30.6271 52.52C30.6695 52.52 30.7118 52.52 30.7542 52.5129C30.7471 52.5553 30.7471 52.5976 30.7471 52.64C30.7471 54.1292 31.9611 55.3432 33.4503 55.3432C34.1561 55.3432 34.8266 55.0679 35.3348 54.5809L37.424 56.6701C37.9322 57.1712 38.6239 57.4606 39.3367 57.4606C40.0566 57.4606 40.7342 57.1783 41.2494 56.6701C41.7576 56.1549 42.0399 55.4773 42.0399 54.7574C42.0399 54.715 42.0399 54.6727 42.0329 54.6303C42.0752 54.6374 42.1176 54.6374 42.1599 54.6374C43.6492 54.6374 44.8631 53.4234 44.8631 51.9342C44.8631 51.8918 44.8631 51.8495 44.8561 51.8071C44.8984 51.8142 44.9408 51.8142 44.9831 51.8142C46.4724 51.8142 47.6864 50.6002 47.6864 49.1109C47.6864 49.0686 47.6864 49.0263 47.6793 48.9839C47.7216 48.991 47.764 48.991 47.8063 48.991C49.2956 48.991 50.5096 47.777 50.5096 46.2877C50.5096 45.7302 50.3402 45.2008 50.0367 44.7562H56.156C56.5442 44.7562 56.8618 44.4385 56.8618 44.0504V29.2285C56.8618 28.8403 56.5442 28.5227 56.156 28.5227ZM25.8912 45.0808C25.6512 45.3279 25.3266 45.462 24.9807 45.462C24.2679 45.462 23.6891 44.8832 23.6891 44.1703C23.6891 43.8245 23.8232 43.4998 24.0702 43.2599L27.1334 40.1967C27.3734 39.9496 27.698 39.8155 28.0439 39.8155C28.7567 39.8155 29.3355 40.3943 29.3355 41.1072C29.3355 41.453 29.2014 41.7777 28.9544 42.0176L25.8912 45.0808ZM28.7144 47.904C28.4744 48.1511 28.1498 48.2852 27.8039 48.2852C27.0911 48.2852 26.5123 47.7064 26.5123 46.9935C26.5123 46.6477 26.6464 46.323 26.8934 46.0831L29.9566 43.0199C30.1966 42.7729 30.5213 42.6387 30.8671 42.6387C31.58 42.6387 32.1587 43.2175 32.1587 43.9304C32.1587 44.2762 32.0246 44.6009 31.7776 44.8408L28.7144 47.904ZM31.5376 50.7272C31.2976 50.9743 30.973 51.1084 30.6271 51.1084C29.9143 51.1084 29.3355 50.5296 29.3355 49.8167C29.3355 49.4709 29.4696 49.1462 29.7166 48.9063L32.7798 45.8431C33.0198 45.5961 33.3445 45.462 33.6903 45.462C34.4032 45.462 34.9819 46.0407 34.9819 46.7536C34.9819 47.0994 34.8478 47.4241 34.6008 47.6641L31.5376 50.7272ZM34.3608 53.5504C34.1208 53.7975 33.7962 53.9316 33.4503 53.9316C32.7375 53.9316 32.1587 53.3528 32.1587 52.64C32.1587 52.2941 32.2928 51.9694 32.5398 51.7295L35.603 48.6663C35.843 48.4193 36.1677 48.2852 36.5135 48.2852C37.2264 48.2852 37.8051 48.8639 37.8051 49.5768C37.8051 49.9226 37.671 50.2473 37.424 50.4873L34.3608 53.5504ZM47.8063 47.5794C47.4605 47.5794 47.1358 47.4453 46.8959 47.1982L45.3643 45.6666L44.362 46.6689L45.8936 48.2005C46.1406 48.4404 46.2747 48.7651 46.2747 49.1109C46.2747 49.8238 45.696 50.4026 44.9831 50.4026C44.6373 50.4026 44.3126 50.2685 44.0726 50.0214L42.5411 48.4898L41.5388 49.4921L43.0704 51.0237C43.3174 51.2636 43.4515 51.5883 43.4515 51.9342C43.4515 52.647 42.8728 53.2258 42.1599 53.2258C41.8141 53.2258 41.4894 53.0917 41.2494 52.8446L39.7178 51.313L38.7156 52.3153L40.2472 53.8469C40.4872 54.0868 40.6283 54.4186 40.6283 54.7574C40.6283 55.1032 40.4942 55.4279 40.2472 55.6678C39.7673 56.1549 38.9062 56.1549 38.4262 55.6678L36.3371 53.5787L38.4262 51.4895C38.9344 50.9743 39.2167 50.2967 39.2167 49.5768C39.2167 48.0875 38.0028 46.8736 36.5135 46.8736C36.4712 46.8736 36.4288 46.8736 36.3865 46.8806C36.3935 46.8383 36.3935 46.7959 36.3935 46.7536C36.3935 45.2643 35.1795 44.0504 33.6903 44.0504C33.648 44.0504 33.6056 44.0504 33.5633 44.0574C33.5703 44.0151 33.5703 43.9727 33.5703 43.9304C33.5703 42.4411 32.3563 41.2271 30.8671 41.2271C30.8247 41.2271 30.7824 41.2271 30.7401 41.2342C30.7471 41.1919 30.7471 41.1495 30.7471 41.1072C30.7471 39.6179 29.5331 38.4039 28.0439 38.4039C27.324 38.4039 26.6464 38.6863 26.1312 39.1944L23.068 42.2576C22.7645 42.5682 22.5386 42.9422 22.4045 43.3445H15.9253V29.9343H29.392C29.7308 32.327 31.7917 34.1691 34.2761 34.1691H37.5157L48.7168 45.3773C48.9639 45.6172 49.098 45.9419 49.098 46.2877C49.098 47.0006 48.5192 47.5794 47.8063 47.5794ZM55.4502 43.3445H48.6815L38.3062 32.9622C38.1721 32.8352 37.9957 32.7575 37.8051 32.7575H34.2761C32.5751 32.7575 31.1424 31.5435 30.8177 29.9343H55.4502V43.3445Z" fill="white"/>
<path d="M42.7456 20.0531H44.1572V21.4647H42.7456V20.0531Z" fill="white"/>
<path d="M45.5688 20.0531H46.9805V21.4647H45.5688V20.0531Z" fill="white"/>
<path d="M48.3921 20.0531H49.8037V21.4647H48.3921V20.0531Z" fill="white"/>
</svg>
