<svg width="71" height="70" viewBox="0 0 71 70" fill="none" xmlns="http://www.w3.org/2000/svg">
<circle cx="35.0312" cy="35" r="35" fill="#B61D1D"/>
<path d="M27.32 38.8323C27.6082 39.2673 27.7602 39.7701 27.7602 40.2878C27.7602 41.7459 26.5745 42.9316 25.1164 42.9316C24.5987 42.9316 24.0959 42.7796 23.6609 42.4914L22.9312 43.5939C23.5831 44.0254 24.3386 44.2535 25.1164 44.2535C27.3035 44.2535 29.0821 42.475 29.0821 40.2878C29.0821 39.51 28.8539 38.7545 28.4224 38.1019L27.32 38.8323Z" fill="#EFAFAF"/>
<path d="M25.1166 37.6439C25.6343 37.6439 26.1377 37.7959 26.5715 38.0835L27.3018 36.9817C26.6506 36.5502 25.8954 36.322 25.1166 36.322C22.9295 36.322 21.1509 38.1006 21.1509 40.2878C21.1509 41.0655 21.3791 41.8211 21.8105 42.4736L22.913 41.7439C22.6248 41.3082 22.4728 40.8054 22.4728 40.2878C22.4728 38.8297 23.6585 37.6439 25.1166 37.6439Z" fill="#EFAFAF"/>
<path d="M38.3354 42.2706V46.2364H40.9793V44.9145H39.6574V42.2706H38.3354Z" fill="#EFAFAF"/>
<path d="M38.9969 38.3049C37.3241 38.3049 35.6902 38.8878 34.396 39.9467L35.2341 40.9701C36.1204 40.2442 37.2038 39.796 38.3359 39.6685V40.9488H39.6578V39.6659C42.4107 39.9718 44.6005 42.1622 44.9064 44.9145H43.6236V46.2364H44.9038C44.7764 47.3692 44.3281 48.452 43.6023 49.3388L44.625 50.1763C45.6839 48.8822 46.2674 47.2482 46.2674 45.5755C46.2674 41.5668 43.0055 38.3049 38.9969 38.3049Z" fill="#EFAFAF"/>
<path d="M39.6576 51.4825V50.2022H38.3356V51.485C35.5827 51.1791 33.393 48.9887 33.087 46.2364H34.3699V44.9145H33.0896C33.2171 43.7817 33.6654 42.699 34.3912 41.8121L33.3685 40.9746C32.3096 42.2688 31.7261 43.9028 31.7261 45.5755C31.7261 49.5841 34.9879 52.846 38.9966 52.846C40.6693 52.846 42.3033 52.2632 43.5975 51.2043L42.7593 50.1809C41.8731 50.9067 40.7903 51.355 39.6576 51.4825Z" fill="#EFAFAF"/>
<path d="M51.5551 44.9146H50.2332V26.4078H46.2674V38.8575C45.8637 38.4205 45.4215 38.0213 44.9455 37.6624V29.7126H40.9798V35.8606C40.5496 35.7728 40.1061 35.7241 39.6579 35.6941V33.0173H35.6921V36.2395C35.0273 36.4754 34.3954 36.7801 33.8038 37.1457C33.6708 36.7775 33.5243 36.416 33.3471 36.071L34.3921 34.6074L30.7972 31.0112L29.333 32.0569C28.8921 31.8316 28.4316 31.6412 27.9556 31.4885L27.6603 29.7126H22.574L22.2787 31.4885C21.8027 31.6412 21.3421 31.8316 20.9013 32.0569L19.4374 31.0112L15.8421 34.6074L16.8871 36.071C16.6612 36.5112 16.4708 36.9718 16.3181 37.4485L14.5415 37.745V42.8307L16.3175 43.1266C16.4702 43.6033 16.6612 44.0638 16.8865 44.504L15.8415 45.9673L19.4364 49.5638L20.9006 48.5182C21.3415 48.7435 21.802 48.9339 22.2781 49.0865L22.5734 50.8632H27.6596L27.9549 49.0872C28.431 48.9345 28.8915 48.7441 29.3323 48.5188L29.5967 48.7076C30.9128 52.6424 34.6255 55.4899 38.9969 55.4899C44.241 55.4899 48.5353 51.3953 48.8777 46.2365H55.5208V21.1201H51.5551V44.9146ZM47.5893 27.7297H48.9112V44.9146H48.8777C48.7751 43.37 48.321 41.9225 47.5893 40.6506V27.7297ZM42.3017 31.0345H43.6236V36.814C43.2011 36.5897 42.7577 36.4022 42.3017 36.2401V31.0345ZM37.014 34.3392H38.3359V35.6947C37.8877 35.7247 37.4442 35.7735 37.014 35.8616V34.3392ZM29.0529 47.1672C28.4752 47.4983 27.852 47.7559 27.1981 47.9331L26.7889 48.0441L26.5391 49.5412H23.6939L23.4441 48.0441L23.0349 47.9331C22.3816 47.7559 21.7578 47.4983 21.1801 47.1672L20.8119 46.9562L19.5794 47.8372L17.5668 45.8253L18.4479 44.5915L18.2368 44.2233C17.9063 43.6469 17.6481 43.0237 17.4709 42.3692L17.3606 41.9599L15.8634 41.7108V38.8649L17.3606 38.6158L17.4716 38.2066C17.6501 37.5514 17.907 36.9276 18.2374 36.3525L18.4485 35.9842L17.5674 34.7504L19.58 32.7385L20.8125 33.6196L21.1808 33.4085C21.7585 33.0774 22.3816 32.8198 23.0355 32.6426L23.4447 32.5316L23.6945 31.0345H26.5397L26.7895 32.5316L27.1988 32.6426C27.852 32.8198 28.4758 33.0774 29.0535 33.4085L29.4217 33.6196L30.6543 32.7385L32.6668 34.7504L31.7858 35.9842L31.9968 36.3525C32.2821 36.8495 32.5016 37.3881 32.6742 37.9461C32.2876 38.2672 31.9326 38.6235 31.5989 38.9982C30.9967 35.969 28.3199 33.6783 25.1168 33.6783C21.4722 33.6783 18.5072 36.6432 18.5072 40.2879C18.5072 43.9325 21.4722 46.8974 25.1168 46.8974C26.5604 46.8974 27.9491 46.4091 29.0832 45.5578C29.0832 45.5636 29.0825 45.5697 29.0825 45.5755C29.0825 46.0877 29.1335 46.5866 29.2087 47.0778L29.0529 47.1672ZM30.388 40.6771C29.8903 41.5491 29.5176 42.4995 29.302 43.51C28.3038 44.8035 26.7514 45.5755 25.1168 45.5755C22.2012 45.5755 19.8292 43.2034 19.8292 40.2879C19.8292 37.3723 22.2012 35.0002 25.1168 35.0002C28.0324 35.0002 30.4045 37.3723 30.4045 40.2879C30.4045 40.4195 30.397 40.5483 30.388 40.6771ZM38.9969 54.1679C34.2592 54.1679 30.4045 50.3132 30.4045 45.5755C30.4045 40.8378 34.2592 36.9831 38.9969 36.9831C43.7346 36.9831 47.5893 40.8378 47.5893 45.5755C47.5893 50.3132 43.7346 54.1679 38.9969 54.1679ZM52.877 22.442H54.1989V44.9146H52.877V22.442Z" fill="white"/>
<path d="M51.5551 14.5104V15.8323H52.9754L48.2993 19.5734L46.2674 17.5415L43.1511 20.6578C42.8926 20.5335 42.607 20.459 42.3017 20.459C41.2086 20.459 40.3188 21.3488 40.3188 22.4419C40.3188 22.7836 40.414 23.1009 40.5667 23.3817L37.1118 27.2206C36.8778 27.1234 36.6222 27.0686 36.3531 27.0686C36.3405 27.0686 36.3292 27.0718 36.3166 27.0724L33.6589 19.9846C34.0901 19.6208 34.3702 19.0835 34.3702 18.4761C34.3702 17.383 33.4804 16.4932 32.3873 16.4932C31.2942 16.4932 30.4045 17.383 30.4045 18.4761C30.4045 18.6188 30.4209 18.7575 30.45 18.8924L25.0316 22.2263C24.6918 21.9519 24.2648 21.7809 23.7949 21.7809C22.9345 21.7809 22.2074 22.3354 21.9337 23.1028H18.3856C18.1119 22.3354 17.3848 21.7809 16.5244 21.7809C15.4313 21.7809 14.5415 22.6707 14.5415 23.7638C14.5415 24.8569 15.4313 25.7466 16.5244 25.7466C17.3848 25.7466 18.1119 25.1922 18.3856 24.4247H21.9343C22.208 25.1922 22.9351 25.7466 23.7955 25.7466C24.8886 25.7466 25.7784 24.8569 25.7784 23.7638C25.7784 23.6211 25.762 23.4823 25.7329 23.3474L31.1513 20.0136C31.4905 20.2879 31.9174 20.459 32.3873 20.459C32.3999 20.459 32.4112 20.4558 32.4238 20.4551L35.0815 27.5423C34.6503 27.9067 34.3702 28.444 34.3702 29.0514C34.3702 30.1445 35.26 31.0343 36.3531 31.0343C37.4462 31.0343 38.3359 30.1445 38.3359 29.0514C38.3359 28.7096 38.2414 28.3924 38.0881 28.1116L41.5429 24.2727C41.7769 24.3699 42.0325 24.4247 42.3017 24.4247C43.3948 24.4247 44.2845 23.535 44.2845 22.4419C44.2845 22.1365 44.21 21.8509 44.0857 21.5924L46.2674 19.4107L48.2012 21.3446L54.1989 16.5468V18.4761H55.5208V14.5104H51.5551ZM16.5244 24.4247C16.1597 24.4247 15.8634 24.1278 15.8634 23.7638C15.8634 23.3997 16.1597 23.1028 16.5244 23.1028C16.8891 23.1028 17.1853 23.3997 17.1853 23.7638C17.1853 24.1278 16.8891 24.4247 16.5244 24.4247ZM23.7949 24.4247C23.4302 24.4247 23.1339 24.1278 23.1339 23.7638C23.1339 23.3997 23.4302 23.1028 23.7949 23.1028C24.1596 23.1028 24.4559 23.3997 24.4559 23.7638C24.4559 24.1278 24.1596 24.4247 23.7949 24.4247ZM31.7264 18.4761C31.7264 18.1121 32.0226 17.8152 32.3873 17.8152C32.752 17.8152 33.0483 18.1121 33.0483 18.4761C33.0483 18.8402 32.752 19.1371 32.3873 19.1371C32.0226 19.1371 31.7264 18.8402 31.7264 18.4761ZM36.3531 29.7124C35.9884 29.7124 35.6921 29.4155 35.6921 29.0514C35.6921 28.6874 35.9884 28.3905 36.3531 28.3905C36.7178 28.3905 37.014 28.6874 37.014 29.0514C37.014 29.4155 36.7178 29.7124 36.3531 29.7124ZM42.3017 23.1028C41.937 23.1028 41.6407 22.8059 41.6407 22.4419C41.6407 22.0778 41.937 21.7809 42.3017 21.7809C42.6664 21.7809 42.9626 22.0778 42.9626 22.4419C42.9626 22.8059 42.6664 23.1028 42.3017 23.1028Z" fill="white"/>
</svg>
