<svg width="905" height="764" viewBox="0 0 905 764" fill="none" xmlns="http://www.w3.org/2000/svg">
<path d="M727.21 237.823L726.923 237.537L659.091 180.291L219.753 79.6819L135.32 8.12463L135.463 7.83838L219.896 79.3957L659.234 180.005L726.923 237.108L755.115 7.9815H755.545L727.21 237.823Z" fill="#C1C1C1"/>
<path d="M800.337 586.164L579.666 186.445L645.066 401.403L644.637 401.547L578.378 183.297L800.623 586.021L800.337 586.164Z" fill="#C1C1C1"/>
<path d="M644.78 401.69L644.637 401.546L429.118 7.9815L429.404 7.83838L644.923 401.26L798.62 307.95L726.923 237.537L727.21 237.251L799.192 307.95L798.906 308.093L644.78 401.69Z" fill="#C1C1C1"/>
<path d="M286.869 723.984V723.554L279.714 587.452L2.22998 553.248L2.51621 552.962L263.686 284.193V283.334L264.115 284.193L401.641 573.57L598.27 316.537L598.556 316.823L401.784 573.857L416.238 604.197H415.952L381.892 600.046L286.869 723.984ZM280 587.452L287.156 723.125L381.32 600.046L280 587.452ZM382.035 599.617L415.522 603.767L401.498 574.286L382.035 599.617ZM280 587.023L381.606 599.617L401.355 573.857L264.115 285.051L280 587.023ZM2.94551 552.819L279.571 587.023L263.543 284.622L2.94551 552.819Z" fill="#C1C1C1"/>
<path d="M0.942383 553.534L598.27 316.393L598.413 316.823L4.37694 552.532L273.418 504.875V505.162L0.942383 553.534Z" fill="#C1C1C1"/>
<path d="M700.591 697.364L658.947 180.148H659.377L700.735 695.218L798.763 307.95H799.049L700.591 697.364Z" fill="#C1C1C1"/>
<path d="M701.021 696.649L700.735 696.505L415.666 604.053V603.91L544.748 229.523L544.891 229.952L701.021 696.649ZM416.095 603.91L700.449 696.076L544.748 230.525L416.095 603.91Z" fill="#C1C1C1"/>
<path d="M579.094 185.3L578.951 185.157L458.169 42.4721L219.753 79.825L205.442 8.12463H205.728L220.039 79.5388L458.025 42.329L429.261 8.26773L429.547 7.9815L458.455 42.1859L677.837 7.83838L677.694 8.12463L579.094 185.3ZM458.598 42.329L578.951 184.585L676.979 8.12463L458.598 42.329Z" fill="#C1C1C1"/>
<path d="M659.233 185.73C663.106 185.73 666.246 182.59 666.246 178.717C666.246 174.844 663.106 171.705 659.233 171.705C655.361 171.705 652.221 174.844 652.221 178.717C652.221 182.59 655.361 185.73 659.233 185.73Z" fill="#C1C1C1"/>
<path d="M579.094 192.886C582.967 192.886 586.106 189.746 586.106 185.873C586.106 182 582.967 178.86 579.094 178.86C575.221 178.86 572.082 182 572.082 185.873C572.082 189.746 575.221 192.886 579.094 192.886Z" fill="#C1C1C1"/>
<path d="M546.179 236.965C550.052 236.965 553.192 233.825 553.192 229.952C553.192 226.079 550.052 222.94 546.179 222.94C542.307 222.94 539.167 226.079 539.167 229.952C539.167 233.825 542.307 236.965 546.179 236.965Z" fill="#C1C1C1"/>
<path d="M375.882 458.649C379.755 458.649 382.895 455.51 382.895 451.637C382.895 447.764 379.755 444.624 375.882 444.624C372.01 444.624 368.87 447.764 368.87 451.637C368.87 455.51 372.01 458.649 375.882 458.649Z" fill="#C1C1C1"/>
<path d="M645.353 408.559C649.225 408.559 652.365 405.419 652.365 401.546C652.365 397.673 649.225 394.534 645.353 394.534C641.48 394.534 638.34 397.673 638.34 401.546C638.34 405.419 641.48 408.559 645.353 408.559Z" fill="#C1C1C1"/>
<path d="M415.809 609.778C419.682 609.778 422.821 606.638 422.821 602.765C422.821 598.893 419.682 595.753 415.809 595.753C411.936 595.753 408.797 598.893 408.797 602.765C408.797 606.638 411.936 609.778 415.809 609.778Z" fill="#C1C1C1"/>
<path d="M273.418 510.886C277.291 510.886 280.43 507.746 280.43 503.873C280.43 500.001 277.291 496.861 273.418 496.861C269.545 496.861 266.406 500.001 266.406 503.873C266.406 507.746 269.545 510.886 273.418 510.886Z" fill="#C1C1C1"/>
<path d="M263.83 291.205C267.702 291.205 270.842 288.065 270.842 284.193C270.842 280.32 267.702 277.18 263.83 277.18C259.957 277.18 256.817 280.32 256.817 284.193C256.817 288.065 259.957 291.205 263.83 291.205Z" fill="#C1C1C1"/>
<path opacity="0.3" d="M512.406 331.134C538.33 331.134 559.345 310.118 559.345 284.193C559.345 258.267 538.33 237.251 512.406 237.251C486.482 237.251 465.467 258.267 465.467 284.193C465.467 310.118 486.482 331.134 512.406 331.134Z" fill="#C1C1C1"/>
<path opacity="0.5" d="M252.095 763.197C273.988 763.197 291.735 745.448 291.735 723.554C291.735 701.66 273.988 683.911 252.095 683.911C230.202 683.911 212.454 701.66 212.454 723.554C212.454 745.448 230.202 763.197 252.095 763.197Z" fill="#C1C1C1"/>
<path opacity="0.15" d="M351.268 491.566C363.835 491.566 374.022 481.378 374.022 468.81C374.022 456.243 363.835 446.055 351.268 446.055C338.701 446.055 328.514 456.243 328.514 468.81C328.514 481.378 338.701 491.566 351.268 491.566Z" fill="#C1C1C1"/>
<path opacity="0.15" d="M220.325 119.611C238.582 119.611 253.382 104.81 253.382 86.5514C253.382 68.2932 238.582 53.4919 220.325 53.4919C202.067 53.4919 187.267 68.2932 187.267 86.5514C187.267 104.81 202.067 119.611 220.325 119.611Z" fill="#C1C1C1"/>
<path opacity="0.15" d="M430.692 632.82C448.95 632.82 463.75 618.019 463.75 599.76C463.75 581.502 448.95 566.701 430.692 566.701C412.435 566.701 397.635 581.502 397.635 599.76C397.635 618.019 412.435 632.82 430.692 632.82Z" fill="#C1C1C1"/>
<path opacity="0.1" d="M718.623 242.833C764.622 242.833 801.911 205.541 801.911 159.54C801.911 113.539 764.622 76.2473 718.623 76.2473C672.624 76.2473 635.335 113.539 635.335 159.54C635.335 205.541 672.624 242.833 718.623 242.833Z" fill="#C1C1C1"/>
<path d="M727.066 244.407C730.939 244.407 734.079 241.267 734.079 237.394C734.079 233.521 730.939 230.382 727.066 230.382C723.194 230.382 720.054 233.521 720.054 237.394C720.054 241.267 723.194 244.407 727.066 244.407Z" fill="#C1C1C1"/>
<path d="M717.908 159.54C721.78 159.54 724.92 156.4 724.92 152.527C724.92 148.654 721.78 145.515 717.908 145.515C714.035 145.515 710.896 148.654 710.896 152.527C710.896 156.4 714.035 159.54 717.908 159.54Z" fill="#C1C1C1"/>
<path d="M598.414 323.692C602.286 323.692 605.426 320.552 605.426 316.68C605.426 312.807 602.286 309.667 598.414 309.667C594.541 309.667 591.401 312.807 591.401 316.68C591.401 320.552 594.541 323.692 598.414 323.692Z" fill="#C1C1C1"/>
<path d="M685.565 383.085C688.411 383.085 690.717 380.778 690.717 377.933C690.717 375.087 688.411 372.781 685.565 372.781C682.72 372.781 680.414 375.087 680.414 377.933C680.414 380.778 682.72 383.085 685.565 383.085Z" fill="#C1C1C1"/>
<path d="M700.735 703.375C704.608 703.375 707.747 700.236 707.747 696.363C707.747 692.49 704.608 689.35 700.735 689.35C696.862 689.35 693.723 692.49 693.723 696.363C693.723 700.236 696.862 703.375 700.735 703.375Z" fill="#C1C1C1"/>
<path d="M677.266 14.9942C681.138 14.9942 684.278 11.8546 684.278 7.98161C684.278 4.10864 681.138 0.968994 677.266 0.968994C673.393 0.968994 670.253 4.10864 670.253 7.98161C670.253 11.8546 673.393 14.9942 677.266 14.9942Z" fill="#C1C1C1"/>
<path d="M430.692 14.9942C434.565 14.9942 437.704 11.8546 437.704 7.98161C437.704 4.10864 434.565 0.968994 430.692 0.968994C426.819 0.968994 423.68 4.10864 423.68 7.98161C423.68 11.8546 426.819 14.9942 430.692 14.9942Z" fill="#C1C1C1"/>
<g opacity="0.25">
<path opacity="0.25" d="M459.17 756.757L458.884 756.184L372.304 615.503H372.734L462.032 630.959L465.181 500.725L465.037 500.582H465.324L669.537 473.819L755.687 506.306L904.232 570.135L903.803 570.279L809.925 596.039L809.782 595.753L903.087 570.135L755.687 506.736L669.68 474.249L465.467 501.011L499.956 570.422L680.842 669.457L679.841 669.314L462.318 631.532L459.17 756.757ZM373.02 616.075L458.884 755.612L461.889 631.532L373.02 616.075ZM462.175 631.102L678.696 668.741L499.669 570.708L465.324 501.584L462.175 631.102Z" fill="#C1C1C1"/>
<path opacity="0.25" d="M679.698 669.886V669.171L669.394 474.392L499.955 570.708L372.733 615.932L372.59 615.646L499.812 570.422L669.394 473.963L650.361 358.04L650.79 358.755L749.248 504.16V504.303L679.698 669.886ZM669.823 474.106L679.984 668.312L748.961 504.017L651.076 359.471L669.823 474.106Z" fill="#C1C1C1"/>
<path opacity="0.25" d="M679.983 669.171L679.697 669.028L742.092 359.185L742.235 359.614L903.946 569.992L903.66 570.279L742.235 360.043L679.983 669.171Z" fill="#C1C1C1"/>
</g>
<path opacity="0.2" d="M598.414 316.68L645.353 401.547L727.067 237.394L598.414 316.68Z" fill="#C1C1C1"/>
<path opacity="0.2" d="M415.809 603.911L406.364 567.702L446.434 515.179L415.809 603.911Z" fill="#C1C1C1"/>
<path opacity="0.2" d="M659.234 178.717L604.424 139.218L574.372 191.168L659.234 178.717Z" fill="#C1C1C1"/>
<path d="M798.763 199.755L658.518 180.578L676.693 7.83862L677.837 7.98175L659.806 179.719L798.906 198.753L798.763 199.755Z" fill="#C1C1C1"/>
<path d="M374.594 452.925L578.808 184.442H579.094L657.803 179.719L428.975 8.41106L429.547 7.55237L718.337 151.955L798.62 109.164L799.192 110.165L718.337 153.243L434.413 11.2734L660.665 180.578L581.67 185.301L727.782 237.108L727.496 237.681L645.209 401.976H644.923L374.594 452.925ZM579.237 185.587L377.027 451.351L644.494 401.117L726.208 237.681L579.237 185.587Z" fill="#C1C1C1"/>
<path d="M451.157 740.156L375.167 451.78L375.596 451.637L541.6 351.027L726.494 237.108L717.765 152.527L718.91 152.384L727.639 237.681L727.353 237.824L542.173 351.886L376.455 452.352L452.302 739.87L451.157 740.156Z" fill="#C1C1C1"/>
<path d="M700.305 697.508L700.162 696.363L644.494 402.549L415.952 604.626L415.523 604.483L272.416 505.019L375.596 451.637L376.025 452.495L274.419 505.162L415.809 603.338L645.209 400.545L645.352 401.404L701.021 695.218L800.051 585.735L800.909 586.451L700.305 697.508Z" fill="#C1C1C1"/>
<path d="M109.847 747.169L272.988 504.732L273.847 505.305L112.852 744.592L415.666 603.481L416.095 604.483L109.847 747.169Z" fill="#C1C1C1"/>
</svg>
