<svg width="74" height="75" viewBox="0 0 74 75" fill="none" xmlns="http://www.w3.org/2000/svg">
<path d="M70.5969 62.329H73.5903V55.2073H70.5921C69.95 55.2073 69.3767 54.8251 69.1298 54.2329C68.8793 53.6299 69.0147 52.9438 69.4776 52.4821L71.5903 50.3777L66.5494 45.3367L64.4414 47.4542C63.9832 47.9159 63.2971 48.0512 62.7001 47.8008C62.1055 47.5527 61.7209 46.9747 61.7209 46.3314V43.3379H55.7862V52.0524C56.5292 51.7901 57.328 51.6465 58.16 51.6465C62.0888 51.6465 65.2817 54.8394 65.2817 58.7682C65.2817 62.697 62.0888 65.8898 58.16 65.8898C57.328 65.8898 56.5292 65.7462 55.7862 65.4839V65.8898C55.7862 67.5409 55.2188 69.0554 54.2764 70.2637C54.4687 70.5213 54.5992 70.8216 54.5992 71.1456V74.1985H61.7209V71.1456C61.7209 70.5367 62.0829 69.9931 62.6443 69.7593C63.2782 69.4946 64.001 69.6382 64.4841 70.1249L66.5494 72.2008L71.5915 67.1599L69.4764 65.053C69.0147 64.5925 68.8793 63.9088 69.1298 63.3082C69.3767 62.7124 69.9523 62.329 70.5969 62.329Z" fill="#B61D1D"/>
<path d="M15.4303 57.5809V24.3464H11.8694V26.7951C11.8694 27.239 11.6 27.6355 11.1525 27.8194C10.7371 27.9904 10.2683 27.9001 9.95491 27.588L8.22315 25.8574L1.50979 32.5708L3.24036 34.3025C3.55253 34.6147 3.64273 35.0847 3.45876 35.531C3.28902 35.9464 2.89258 36.2159 2.44867 36.2159H0V45.7114H2.44867C2.89258 45.7114 3.28902 45.9809 3.473 46.4284C3.64511 46.8438 3.55371 47.3126 3.24155 47.626L1.51098 49.3577L8.22434 56.0711L9.95609 54.3405C10.2694 54.0272 10.7395 53.9382 11.1846 54.1209C11.6 54.2919 11.8694 54.6883 11.8694 55.1322V57.5809H15.4303ZM8.30861 40.9637C8.30861 36.7832 11.4077 33.3162 15.4303 32.7393V49.188C11.4077 48.6111 8.30861 45.1441 8.30861 40.9637Z" fill="#B61D1D"/>
<path d="M30.8604 5.35522H40.3559V7.72911H30.8604V5.35522Z" fill="#444444"/>
<path d="M40.3563 62.3286H30.8607C29.5515 62.3286 28.4868 63.3933 28.4868 64.7025V67.0764C28.4868 68.3856 29.5515 69.4503 30.8607 69.4503H40.3563C41.6655 69.4503 42.7302 68.3856 42.7302 67.0764V64.7025C42.7302 63.3933 41.6655 62.3286 40.3563 62.3286ZM30.8607 67.0764V64.7025H40.3563L40.3575 67.0764H30.8607Z" fill="#444444"/>
<path d="M64.0947 12.4773H66.4686V14.8512H64.0947V12.4773Z" fill="#444444"/>
<path d="M59.3472 12.4773H61.7211V14.8512H59.3472V12.4773Z" fill="#444444"/>
<path d="M54.5996 12.4773H56.9735V14.8512H54.5996V12.4773Z" fill="#444444"/>
<path d="M71.2166 5.35544H56.1733C54.8106 2.48423 51.8919 0.607666 48.6646 0.607666H22.5519C17.9703 0.607666 14.2433 4.33467 14.2433 8.91628V31.7756C10.1198 32.8451 7.12158 36.6219 7.12158 40.9638C7.12158 45.3056 10.1198 49.0825 14.2433 50.1519V65.8896C14.2433 70.47 17.9703 74.1982 22.5519 74.1982H48.6646C52.8795 74.1982 56.3632 71.041 56.8949 66.9697C57.3127 67.0338 57.7341 67.0766 58.1602 67.0766C62.7418 67.0766 66.4688 63.3484 66.4688 58.768C66.4688 54.1875 62.7418 50.4593 58.1602 50.4593C57.7602 50.4593 57.365 50.5033 56.9733 50.5602V26.6789C57.8623 26.8332 58.8308 26.5412 59.4908 25.8825L63.3994 21.9727H71.2166C72.5258 21.9727 73.5905 20.908 73.5905 19.5988V7.72933C73.5905 6.42013 72.5258 5.35544 71.2166 5.35544ZM53.4136 5.35544H49.8516C48.5424 5.35544 47.4777 6.42013 47.4777 7.72933V10.1032H44.4439C44.8522 9.40174 45.1038 8.59818 45.1038 7.72933V2.98156H48.6646C50.5638 2.98156 52.3121 3.88957 53.4136 5.35544ZM54.5994 57.581H52.2255V55.9371C52.2255 51.4516 49.1679 47.6404 44.7893 46.6671L44.4332 46.5875C44.6243 46.3205 44.7727 46.0249 44.8842 45.7104H45.1038C47.7222 45.7104 49.8516 43.581 49.8516 40.9626V35.0279V32.654C49.8516 31.7543 49.5857 30.9222 49.1501 30.2041L49.2664 29.854C49.6546 28.6908 49.8516 27.4777 49.8516 26.2504C49.8516 24.6682 49.5264 23.1608 48.9412 21.7899C49.2213 21.9074 49.5287 21.9727 49.8516 21.9727H54.5994V57.581ZM16.6171 12.4771H47.4777V19.3139C45.3922 16.6065 42.127 14.851 38.4522 14.851H32.7643C26.4783 14.851 21.3649 19.9644 21.3649 26.2504C21.3649 27.4777 21.562 28.6908 21.9501 29.8552L22.0664 30.2053C21.6308 30.9234 21.3649 31.7555 21.3649 32.6552V35.0291C21.3649 37.6475 23.4943 39.7768 26.1127 39.7768H26.8118C27.5572 41.6095 28.8581 43.1549 30.5056 44.2101L29.9477 45.8849L26.4272 46.6671C22.0486 47.6404 18.991 51.4516 18.991 55.9371V57.581H16.6171V12.4771ZM28.4866 7.72933V2.98156H42.7299V7.72933C42.7299 9.03853 41.6652 10.1032 40.356 10.1032H30.8605C29.5513 10.1032 28.4866 9.03853 28.4866 7.72933ZM44.8854 43.3377C44.6207 42.5947 44.1258 41.9632 43.4741 41.5406C43.8516 40.9863 44.1626 40.3941 44.4118 39.7768H45.1038C45.9727 39.7768 46.7762 39.5252 47.4777 39.1169V40.9638C47.4777 42.273 46.413 43.3377 45.1038 43.3377H44.8854ZM35.6083 52.8142L32.1542 46.7703L32.6646 45.2392C33.5928 45.5418 34.5804 45.7116 35.6083 45.7116C35.6795 45.7116 35.7507 45.6985 35.8219 45.6961C36.2219 46.8356 37.1762 47.7104 38.3667 47.9858L35.6083 52.8142ZM23.7388 32.6552C23.7388 31.346 24.8035 30.2813 26.1127 30.2813V36.216C26.1127 36.6184 26.1459 37.0136 26.1946 37.403H26.1127C24.8035 37.403 23.7388 36.3383 23.7388 35.0291V32.6552ZM27.3044 27.9074H26.1127C25.3625 27.9074 24.6623 28.0985 24.0308 28.4095C23.8563 27.7021 23.7388 26.9828 23.7388 26.2504C23.7388 21.2736 27.7875 17.2249 32.7643 17.2249H38.4522C43.429 17.2249 47.4777 21.2736 47.4777 26.2504C47.4777 26.9828 47.3602 27.7021 47.1857 28.4095C46.5543 28.0985 45.854 27.9074 45.1038 27.9074H43.4267C42.9685 27.4362 42.4379 27.0279 41.8267 26.7228L40.3418 25.9739C40.2753 24.4783 39.4255 23.1477 38.0759 22.4747L37.3246 22.0985L36.2623 24.2219L37.0148 24.5982C37.6118 24.8949 37.9821 25.4931 37.9821 26.1602C37.9821 27.1228 37.1976 27.9074 36.235 27.9074H27.3044ZM39.1691 45.7116C38.5151 45.7116 37.9821 45.1798 37.9821 44.5246C37.9821 43.8694 38.5151 43.3377 39.1691 43.3377H41.543C42.197 43.3377 42.7299 43.8694 42.7299 44.5246C42.7299 45.1798 42.197 45.7116 41.543 45.7116H39.1691ZM28.4866 30.2813H36.235C37.7127 30.2813 39.0005 29.4932 39.7281 28.3216L40.762 28.8439C41.9762 29.4504 42.7299 30.6706 42.7299 32.0285V36.216C42.7299 37.9905 42.0807 39.6558 40.9068 40.9638H39.1691C37.6296 40.9638 36.3275 41.9513 35.8314 43.3222C35.7566 43.3234 35.683 43.3377 35.6083 43.3377C31.6807 43.3377 28.4866 40.1436 28.4866 36.216V30.2813ZM45.1038 37.403H45.0219C45.0706 37.0113 45.1038 36.6172 45.1038 36.216V32.0285C45.1038 31.4243 45.0077 30.838 44.8379 30.2813H45.1038C46.413 30.2813 47.4777 31.346 47.4777 32.6552V35.0291C47.4777 36.3383 46.413 37.403 45.1038 37.403ZM21.3649 55.9371C21.3649 52.5733 23.6581 49.7139 26.9412 48.9863L30.2634 48.2481L34.4213 55.5229V57.581H21.3649V55.9371ZM36.7952 55.5229L40.9519 48.2481L44.2741 48.9863C47.5584 49.7139 49.8516 52.5733 49.8516 55.9371V57.581H36.7952V55.5229ZM22.5519 2.98156H26.1127V7.72933C26.1127 8.59818 26.3643 9.40174 26.7726 10.1032H16.6171V8.91628C16.6171 5.64387 19.2795 2.98156 22.5519 2.98156ZM9.49547 40.9638C9.49547 37.9205 11.4622 35.2498 14.2433 34.2587V47.6688C11.4622 46.6777 9.49547 44.0071 9.49547 40.9638ZM48.6646 71.8243H22.5519C19.2795 71.8243 16.6171 69.162 16.6171 65.8896V59.9549H54.5994V65.8896C54.5994 69.162 51.9371 71.8243 48.6646 71.8243ZM58.1602 52.8332C61.4326 52.8332 64.0949 55.4956 64.0949 58.768C64.0949 62.0404 61.4326 64.7027 58.1602 64.7027C57.7578 64.7027 57.3626 64.6505 56.9733 64.5709V62.1104C57.346 62.2433 57.7424 62.3288 58.1602 62.3288C60.1234 62.3288 61.721 60.7312 61.721 58.768C61.721 56.8048 60.1234 55.2071 58.1602 55.2071C57.7424 55.2071 57.346 55.2926 56.9733 55.4255V52.965C57.3626 52.8855 57.7578 52.8332 58.1602 52.8332ZM56.9733 58.768C56.9733 58.1128 57.5062 57.581 58.1602 57.581C58.8142 57.581 59.3471 58.1128 59.3471 58.768C59.3471 59.4231 58.8142 59.9549 58.1602 59.9549C57.5062 59.9549 56.9733 59.4231 56.9733 58.768ZM71.2166 19.5988H62.4166L57.8124 24.2029C57.5299 24.4854 56.9733 24.2552 56.9733 23.8552V19.5988H49.8516V7.72933H71.2166V19.5988Z" fill="#444444"/>
</svg>
