<svg width="75" height="75" viewBox="0 0 75 75" fill="none" xmlns="http://www.w3.org/2000/svg">
<path d="M70.3147 13.6455C70.3147 10.4801 68.9084 7.47924 66.4772 5.45323L66.1292 5.16363C64.214 3.56666 61.7983 2.69189 59.3027 2.69189C54.432 2.69189 50.25 5.98357 49.0142 10.5862L54.3509 8.80688C54.6632 8.70319 54.9885 8.65075 55.3174 8.65075C56.4747 8.65075 57.5318 9.30385 58.049 10.3395L59.5888 13.4178H60.9736C63.5001 13.4178 65.5476 15.4653 65.5476 17.9919C65.5476 18.8952 65.2807 19.7771 64.7789 20.5291L63.1641 22.952V27.7191L63.2546 27.7644C66.1209 29.1969 67.9312 32.1263 67.9312 35.331V35.5765C71.2896 34.5992 72.6982 32.4862 72.6982 32.4862C71.1442 30.1551 70.3147 27.4152 70.3147 24.6133V13.6455Z" fill="#B61D1D"/>
<path d="M20.9562 7.4591C21.2852 7.4591 21.6105 7.51154 21.9228 7.61642L27.2595 9.39573C26.0237 4.79192 21.8417 1.50024 16.971 1.50024C14.4766 1.50024 12.0609 2.375 10.1445 3.97198C7.4916 6.18152 5.95898 9.45413 5.95898 12.9067V15.5369C5.95898 19.4257 7.90277 23.057 11.1372 25.2141L12.6234 26.2045L13.1096 25.6467V21.7604L11.4948 19.3375C10.993 18.5855 10.7261 17.7036 10.7261 16.8002C10.7261 14.2737 12.7735 12.2262 15.3001 12.2262H16.6849L18.2247 9.14784C18.7419 8.1122 19.799 7.4591 20.9562 7.4591Z" fill="#B61D1D"/>
<path d="M19.3545 46.636L18.0936 31.51L16.685 30.1025L15.2763 31.5112L14.479 41.0728L19.0006 46.3702C19.0995 46.4846 19.2234 46.5669 19.3545 46.636Z" fill="#B61D1D"/>
<path d="M19.9621 53.9381H18.501C17.1602 53.9381 15.8802 53.3732 14.9769 52.3816L13.6576 50.9336L13.1094 57.5134L16.6847 61.0887L20.26 57.5134L19.9621 53.9381Z" fill="#B61D1D"/>
<path d="M67.9313 49.1709V62.2804C67.9313 64.2552 66.3307 65.8557 64.356 65.8557C62.3812 65.8557 60.7806 64.2552 60.7806 62.2804V49.1709H54.8218V65.8557H73.8901V49.1709H67.9313Z" fill="#B61D1D"/>
<path d="M73.6897 31.8248C72.2607 29.682 71.5063 27.1888 71.5063 24.6145V13.6455C71.5063 10.1166 69.9511 6.79636 67.241 4.53795L66.893 4.24835C64.7669 2.47618 62.0711 1.50012 59.3026 1.50012C53.4414 1.50012 48.3955 5.87631 47.566 11.679L46.3695 20.0584L49.0796 21.4134L50.3869 25.3356H54.8215V26.5273V26.9981V28.315L49.0021 32.6793C46.6769 34.424 45.2873 37.202 45.2873 40.1088C45.2873 40.6248 45.3469 41.1396 45.4327 41.6485L42.0648 45.5957H33.3994H33.3696H28.6025V37.6406C28.6025 32.9105 25.7625 28.6952 21.4519 26.8944V24.1438H25.8865L27.1939 20.2217L29.9039 18.8666L28.7074 10.4873C27.8779 4.68454 22.832 0.30835 16.9708 0.30835C14.2035 0.30835 11.5078 1.28441 9.38044 3.05658C6.44868 5.49971 4.76709 9.09052 4.76709 12.9066V15.5368C4.76709 19.6723 6.75973 23.5074 10.0955 25.916L7.32821 26.4701C3.18203 27.2996 0.15493 30.9035 0.0131095 35.1033H0V74.1982H28.6025V55.1299H33.3696H33.3994H43.4711C45.0514 55.1299 46.5578 54.4792 47.6709 53.3672V74.1982H69.1228V65.8558H67.4758C68.4768 64.981 69.1228 63.7106 69.1228 62.2805V36.4155C72.2321 35.2451 73.6277 33.2394 73.6897 33.1464L74.1306 32.4862L73.6897 31.8248ZM57.2051 25.1163C58.5887 24.6229 59.5886 23.3119 59.5886 21.7602V20.5685H57.2051V21.7602C57.2051 22.4169 56.67 22.952 56.0133 22.952H52.1055L51.0293 19.7235L48.9723 18.695L49.9257 12.0163C49.9507 11.8435 49.9889 11.6755 50.0234 11.5062L54.7286 9.93787C55.5926 9.65184 56.577 10.0582 56.9846 10.8722L58.8521 14.6096H60.9734C62.8386 14.6096 64.3557 16.1267 64.3557 17.9919C64.3557 18.6616 64.159 19.31 63.7872 19.8677L61.9721 22.5909V26.1662L60.7101 28.0576C60.3549 28.5927 59.7602 28.9109 59.1179 28.9109C58.0631 28.9109 57.2051 28.0528 57.2051 26.9981V26.5273V25.1163ZM26.219 37.6406V45.5957H19.9074L12.0655 36.4083L16.6848 31.7878L22.2468 37.3498L23.317 30.9285C25.1226 32.6387 26.219 35.0342 26.219 37.6406ZM12.7186 27.8216L14.8149 29.9179L14.9996 30.1026L12.7603 32.3408L12.131 27.9384L12.7186 27.8216ZM20.39 29.0646C20.6486 29.1683 20.912 29.2648 21.1575 29.39L20.657 32.3897L18.5559 30.2874L20.39 29.0646ZM25.2441 18.5317L24.1679 21.7602H20.2601C19.6035 21.7602 19.0684 21.2251 19.0684 20.5685V19.3767H16.6848V20.5685C16.6848 22.1202 17.6847 23.4311 19.0684 23.9245V27.0815L16.8362 28.5688L14.3013 26.0339V21.3991L12.4862 18.6759C12.1144 18.1182 11.9177 17.4699 11.9177 16.8001C11.9177 14.935 13.4348 13.4178 15.3 13.4178H17.4213L19.29 9.68044C19.6964 8.86646 20.6844 8.45769 21.5449 8.74609L26.25 10.3145C26.2833 10.4837 26.3227 10.6517 26.3477 10.8245L27.3011 17.5032L25.2441 18.5317ZM7.15063 15.5356V12.9054C7.15063 9.79843 8.51998 6.87501 10.9059 4.88595C12.6054 3.47131 14.7589 2.69189 16.9708 2.69189C20.4186 2.69189 23.5077 4.59039 25.1643 7.43991L22.2981 6.4853C21.8643 6.3411 21.4126 6.26721 20.9561 6.26721C19.3377 6.26721 17.8813 7.167 17.1579 8.615L15.9483 11.0343H15.3C12.1203 11.0343 9.53418 13.6204 9.53418 16.8001C9.53418 17.9418 9.86907 19.049 10.5019 19.9988L11.9177 22.1214V24.3011L11.7985 24.2224C8.88824 22.281 7.15063 19.0335 7.15063 15.5356ZM2.38354 71.8147V64.664H26.219V71.8147H2.38354ZM26.219 62.2805H2.38354V40.3304L14.0963 53.1849C15.2225 54.4208 16.829 55.1299 18.5011 55.1299H26.219V62.2805ZM33.3696 52.7463H18.5011C17.4976 52.7463 16.5346 52.3209 15.8589 51.5796L3.3167 37.8158C2.71486 37.1544 2.38354 36.2999 2.38354 35.4072C2.38354 32.2097 4.65983 29.4329 7.79657 28.806L9.7916 28.4068L10.7069 34.8161L8.05757 31.7127L6.24489 33.2608L18.0959 47.145C18.5487 47.6753 19.209 47.9792 19.9074 47.9792H33.3696H33.3994C34.7032 47.9792 35.7722 49.0399 35.783 50.3425C35.7877 50.9825 35.5422 51.5855 35.0917 52.0408C34.64 52.496 34.0394 52.7463 33.3994 52.7463H33.3696ZM46.1132 51.5796C45.4375 52.3209 44.4746 52.7463 43.4711 52.7463H37.5075C37.9329 52.0158 38.1725 51.1911 38.1653 50.3234C38.1582 49.4666 37.9055 48.6728 37.4991 47.9792H42.0636C42.762 47.9792 43.4222 47.6753 43.8763 47.1438L46.292 44.3133L47.6709 47.0687V49.8706L46.1132 51.5796ZM66.7392 71.8147H50.0544V64.664H54.8215V62.2805H50.0544V46.5062L48.4002 43.1966C47.9235 42.2432 47.6709 41.1754 47.6709 40.11C47.6709 37.9493 48.703 35.8839 50.4322 34.5861L56.2802 30.2004C57.0394 30.8725 58.0262 31.2944 59.1179 31.2944C60.5575 31.2944 61.8935 30.5794 62.6932 29.3816L62.9649 28.974C65.2948 30.2528 66.7392 32.6554 66.7392 35.331V62.2805C66.7392 63.595 65.6702 64.664 64.3557 64.664C63.0412 64.664 61.9721 63.595 61.9721 62.2805V40.4198C61.9721 38.8288 61.3524 37.3319 60.2274 36.2069L59.2394 35.2189L57.5542 36.9041L58.5422 37.8921C59.2072 38.5571 59.5886 39.4783 59.5886 40.4198V62.2805C59.5886 64.9095 61.7266 67.0476 64.3557 67.0476C65.2281 67.0476 66.0349 66.7949 66.7392 66.385V71.8147ZM69.0072 33.8889C68.5817 31.043 66.918 28.5367 64.3557 27.0136V23.3131L65.7715 21.1906C66.4044 20.2407 66.7392 19.1336 66.7392 17.9919C66.7392 14.8122 64.1531 12.2261 60.9734 12.2261H60.3251L59.1155 9.80677C58.3921 8.35877 56.9357 7.45898 55.3173 7.45898C54.8608 7.45898 54.4092 7.53287 53.9742 7.67708L51.1091 8.63169C52.7657 5.78216 55.8548 3.88367 59.3026 3.88367C61.5145 3.88367 63.668 4.66308 65.3663 6.07891L65.7143 6.36851C67.881 8.17404 69.1228 10.8257 69.1228 13.6455V24.6145C69.1228 27.3568 69.8462 30.0204 71.2227 32.3742C70.7948 32.7949 70.0595 33.3872 69.0072 33.8889Z" fill="#444444"/>
</svg>
