<svg width="72" height="73" viewBox="0 0 72 73" fill="none" xmlns="http://www.w3.org/2000/svg">
<path d="M28.9907 33.931V40.5118C28.9907 43.1129 28.7587 45.7023 28.3146 48.2558C29.015 48.6292 29.7537 48.9342 30.5098 49.2043C32.1332 48.3416 33.9817 47.8464 35.9484 47.8464C37.9186 47.8464 39.7728 48.3416 41.3975 49.2078C47.6791 46.9663 52.1831 40.9826 52.1831 33.931C52.1831 24.9648 44.9146 17.6963 35.9484 17.6963C28.2416 17.6963 21.8022 23.0723 20.1416 30.2759C20.5625 29.6821 21.2502 29.2925 22.0329 29.2925C23.3143 29.2925 24.3522 30.3304 24.3522 31.6117V33.931C24.3522 32.6496 25.39 31.6117 26.6714 31.6117C27.9528 31.6117 28.9907 32.6496 28.9907 33.931Z" fill="#B61D1D"/>
<path d="M16.2346 7.25977H9.27686V1.46167H16.2346V7.25977Z" fill="#B61D1D"/>
<path d="M62.6194 14.2174C60.0613 14.2174 57.981 12.137 57.981 9.57891C57.981 7.02079 60.0613 4.94043 62.6194 4.94043C65.1776 4.94043 67.2579 7.02079 67.2579 9.57891C67.2579 12.137 65.1776 14.2174 62.6194 14.2174Z" fill="#B61D1D"/>
<path d="M37.1077 53.8578V51.3252H34.7885V53.6444H32.4692V57.1233C32.4692 59.0413 34.0301 60.6022 35.9481 60.6022C36.5871 60.6022 37.1077 61.1217 37.1077 61.7618V62.9214H35.9481C35.3091 62.9214 34.7885 62.4019 34.7885 61.7618V60.6022H32.4692V61.7618C32.4692 63.2716 33.4422 64.5472 34.7885 65.0273V67.5599H37.1077V65.2406H39.427V61.7618C39.427 59.8438 37.8661 58.2829 35.9481 58.2829C35.3091 58.2829 34.7885 57.7634 34.7885 57.1233V55.9637H35.9481C36.5871 55.9637 37.1077 56.4832 37.1077 57.1233V58.2829H39.427V57.1233C39.427 55.6135 38.454 54.3379 37.1077 53.8578Z" fill="#444444"/>
<path d="M39.5711 5.1643C38.771 5.06457 37.9569 4.99731 37.1556 4.96484L37.0605 7.28293C37.7981 7.31308 38.546 7.37454 39.2835 7.46615L39.5711 5.1643Z" fill="#444444"/>
<path d="M34.8361 7.28299L34.7421 4.96606C33.9409 4.99853 33.1268 5.06579 32.3267 5.16552L32.6131 7.46621C33.3494 7.3746 34.0974 7.31314 34.8361 7.28299Z" fill="#444444"/>
<path d="M48.529 57.4249C48.275 55.8386 47.7323 54.3519 46.9496 53.0172C53.7832 49.0838 57.981 41.8872 57.981 33.931C57.981 21.7817 48.0976 11.8982 35.9482 11.8982C31.3457 11.8982 26.9044 13.3431 23.1924 15.9836V10.5217C25.456 9.28558 27.8703 8.37296 30.3902 7.83954L29.9101 5.57016C27.5781 6.06416 25.3284 6.8527 23.1924 7.90216V2.62124C23.1924 1.34218 22.1522 0.302002 20.8732 0.302002H4.63848C3.35942 0.302002 2.31924 1.34218 2.31924 2.62124V18.8559C2.31924 20.135 3.35942 21.1752 4.63848 21.1752H9.27697V39.7291C9.27697 40.3692 8.7563 40.8887 8.11734 40.8887C7.47839 40.8887 6.95772 40.3692 6.95772 39.7291V32.7714C6.95772 30.2133 4.87736 28.1329 2.31924 28.1329C1.04018 28.1329 0 29.1731 0 30.4521V41.581C0 46.4943 1.64434 51.3172 4.63848 55.2054V72.1985H27.8309V69.2878C30.0887 71.1606 32.9263 72.1985 35.9482 72.1985C42.8086 72.1985 48.406 66.7506 48.6786 59.9564C55.1168 56.8045 60.1356 51.4622 62.8317 44.8024L60.6818 43.9327C58.3243 49.7552 54.0325 54.4783 48.529 57.4249ZM45.5916 51.1177C44.7243 50.1147 43.7026 49.2519 42.565 48.5573C43.3397 47.2063 44.0041 45.8113 44.5433 44.3676H52.6908C50.9676 47.1321 48.5464 49.4606 45.5916 51.1177ZM25.3771 30.7073C24.9771 29.2287 23.6365 28.1329 22.0328 28.1329C21.5747 28.1329 21.1399 28.2268 20.7387 28.388C20.385 27.0858 19.3042 26.0908 17.9532 25.8693C17.9614 25.8508 17.9695 25.8311 17.9776 25.8125H26.611C26.2016 27.2887 25.8909 28.8855 25.7076 30.6041C25.5963 30.6377 25.4838 30.6644 25.3771 30.7073ZM23.1855 18.9278C25.9361 16.5877 29.248 15.0628 32.7767 14.4888C31.0825 16.3616 28.8896 19.3534 27.3531 23.4956H19.2462C19.7541 22.6838 20.32 21.9069 20.9497 21.1682C22.1673 21.1276 23.1472 20.1466 23.1855 18.9278ZM55.6027 32.7714H46.3373C46.2445 30.2121 45.8642 27.8929 45.2878 25.8137H53.8922C54.8663 27.9578 55.4589 30.3026 55.6027 32.7714ZM30.1501 40.513V35.0906H44.0273C43.9334 37.5084 43.5496 39.8323 42.8735 42.0483H30.12C30.1362 41.537 30.1501 41.0256 30.1501 40.513ZM46.3466 35.0906H55.6212C55.4797 37.5374 54.8976 39.888 53.9258 42.0483H45.3017C45.9198 39.8219 46.2607 37.4968 46.3466 35.0906ZM44.018 32.7714H29.9368C29.6098 31.853 28.9198 31.1062 28.0269 30.727C28.2263 28.9551 28.5649 27.3073 29.0241 25.8137H42.8538C43.4858 27.8673 43.9137 30.1901 44.018 32.7714ZM29.8683 23.4944C31.8223 18.7701 34.6506 15.7818 35.9471 14.5885C37.2401 15.7771 40.0776 18.7492 42.0362 23.4944H29.8683ZM16.2347 24.1368V21.1752H17.9915C17.3224 22.1145 16.7461 23.1083 16.2347 24.1368ZM29.9866 44.3676H42.042C41.5956 45.453 41.0738 46.5083 40.4789 47.5334C39.0688 46.9953 37.5462 46.6868 35.9482 46.6868C33.6209 46.6868 31.4002 47.3177 29.4544 48.475C29.6909 47.1147 29.873 45.7452 29.9866 44.3676ZM52.6421 23.4944H44.541C43.0115 19.3754 40.8302 16.3732 39.1384 14.4992C44.8251 15.4316 49.6921 18.7933 52.6421 23.4944ZM4.63848 18.8559V2.62124H20.8732V18.8559H16.2347V17.6963C16.2347 15.7783 14.6738 14.2175 12.7558 14.2175C10.8378 14.2175 9.27697 15.7783 9.27697 17.6963V18.8559H4.63848ZM2.31924 41.581V30.4521C3.5983 30.4521 4.63848 31.4923 4.63848 32.7714V39.7291C4.63848 41.6471 6.19933 43.208 8.11734 43.208C10.0354 43.208 11.5962 41.6471 11.5962 39.7291V17.6963C11.5962 17.0562 12.1169 16.5367 12.7558 16.5367C13.3948 16.5367 13.9154 17.0562 13.9154 17.6963V40.8887H16.2347V29.2925C16.2347 28.6524 16.7554 28.1329 17.3943 28.1329C18.0333 28.1329 18.5539 28.6524 18.5539 29.2925V40.8887H20.8732V31.6118C20.8732 30.9717 21.3938 30.4521 22.0328 30.4521C22.6717 30.4521 23.1924 30.9717 23.1924 31.6118V40.8887H25.5117V33.931C25.5117 33.2909 26.0323 32.7714 26.6713 32.7714C27.3102 32.7714 27.8309 33.2909 27.8309 33.931V40.513C27.8309 44.9776 27.1479 49.3899 25.8178 53.6446H6.38487C3.76761 50.1842 2.31924 45.9273 2.31924 41.581ZM6.95772 69.8792V55.9638H25.5117V69.8792H6.95772ZM35.9482 69.8792C32.757 69.8792 29.8243 68.4552 27.8309 65.9806V54.9909C28.1625 53.9808 28.4525 52.9604 28.7145 51.9341C30.6685 50.0497 33.222 49.0061 35.9482 49.0061C41.7023 49.0061 46.3848 53.6875 46.3848 59.4427C46.3848 65.1979 41.7023 69.8792 35.9482 69.8792Z" fill="#444444"/>
<path d="M61.4668 41.7099L63.6851 42.3872C63.9264 41.5928 64.1362 40.7799 64.309 39.9693L62.0396 39.4893C61.8819 40.2337 61.6894 40.9805 61.4668 41.7099Z" fill="#444444"/>
<path d="M62.4131 37.2671L64.7138 37.5524C64.8135 36.7523 64.8808 35.9382 64.9132 35.1381L62.5963 35.043C62.5673 35.7816 62.5047 36.5284 62.4131 37.2671Z" fill="#444444"/>
<path d="M71.8967 9.57897C71.8967 4.46388 67.7348 0.302002 62.6197 0.302002C57.5047 0.302002 53.3428 4.46388 53.3428 9.57897C53.3428 9.97208 53.3799 10.3895 53.4402 10.8209C50.0576 8.25468 46.1624 6.45495 41.9878 5.57016L41.5054 7.83954C46.4384 8.88552 50.9528 11.3114 54.5789 14.8529C56.1908 18.9302 59.0377 23.1999 61.067 24.9637C61.9669 27.4835 62.4864 30.1251 62.5966 32.8189L64.9135 32.7238C64.8114 30.2202 64.3708 27.763 63.6391 25.3881C66.5346 23.3924 71.8967 14.6906 71.8967 9.57897ZM55.662 9.57897C55.662 5.74178 58.7826 2.62124 62.6197 2.62124C66.4569 2.62124 69.5775 5.74178 69.5775 9.57897C69.5775 14.243 64.358 21.748 62.6197 23.3147C60.8815 21.748 55.662 14.243 55.662 9.57897Z" fill="#444444"/>
</svg>
