<svg width="75" height="75" viewBox="0 0 75 75" fill="none" xmlns="http://www.w3.org/2000/svg">
<path d="M70.6391 17.9025V11.3167L67.5107 10.461C67.4082 10.1869 67.2938 9.91402 67.1699 9.64468L68.7799 6.82614L64.1237 2.1687L61.3028 3.77759C61.0323 3.65365 60.7605 3.53924 60.4876 3.43675L59.6319 0.30835H53.045L52.1893 3.43675C51.9164 3.53924 51.6435 3.65246 51.373 3.77759L48.5532 2.1687L43.897 6.82614L45.5071 9.64468C45.3831 9.91402 45.2687 10.1869 45.1662 10.461L42.0366 11.3167V17.9025L45.165 18.7581C45.2675 19.0323 45.3819 19.3052 45.5059 19.5745L43.8958 22.393L48.552 27.0505L51.3575 25.4511C52.181 25.8778 53.0605 26.3068 53.6028 26.4737L53.9543 26.4784V20.5684C53.9543 20.4052 53.971 20.2467 54.002 20.0929C51.8723 19.1848 50.379 17.0718 50.379 14.6096C50.379 11.3191 53.0474 8.65074 56.3379 8.65074C59.6283 8.65074 62.2967 11.3191 62.2967 14.6096C62.2967 17.0718 60.8034 19.1836 58.6737 20.0917C58.7047 20.2455 58.7214 20.4052 58.7214 20.5684V26.5273L59.073 26.4749C59.6105 26.3092 60.465 25.8933 61.3183 25.4523L64.1237 27.0517L68.7799 22.3942L67.1699 19.5757C67.2938 19.3064 67.4082 19.0334 67.5107 18.7593L70.6391 17.9025Z" fill="#B61D1D"/>
<path d="M45.4344 48.8933L44.6097 42.298C44.4846 41.2982 44.1282 40.3412 43.5693 39.5033L42.343 37.6633C42.1439 37.3641 42.0367 37.0102 42.0367 36.6491V36.6479C42.0367 35.6372 42.8566 34.8197 43.866 34.8197C44.4715 34.8197 45.0519 34.9258 45.612 35.0831V31.2944C45.612 29.9799 44.543 28.9109 43.2285 28.9109H39.5709C39.6198 29.3018 39.6531 29.6986 39.6531 30.1027C39.6531 35.3679 35.3842 39.6368 30.119 39.6368C24.8537 39.6368 20.5848 35.3679 20.5848 30.1027C20.5848 29.6986 20.6182 29.3018 20.667 28.9109H7.47534C6.16081 28.9109 5.0918 29.9799 5.0918 31.2944V52.7463C5.0918 54.0608 6.16081 55.1298 7.47534 55.1298H43.2285C44.543 55.1298 45.612 54.0608 45.612 52.7463V49.7871C45.5369 49.4928 45.4726 49.196 45.4344 48.8933Z" fill="#B61D1D"/>
<path d="M72.546 57.7517C73.6222 56.318 74.2145 54.5411 74.2145 52.7463V37.2532C74.2145 35.282 72.6104 33.6779 70.6392 33.6779C70.1684 33.6779 69.7215 33.7745 69.3091 33.9401C68.898 32.4206 67.5203 31.2944 65.8721 31.2944C64.9532 31.2944 64.1226 31.6531 63.4885 32.224C62.8545 31.6519 62.0239 31.2944 61.105 31.2944C60.6855 31.2944 60.2874 31.3802 59.9132 31.5137V20.7913C62.1061 19.5245 63.4885 17.1898 63.4885 14.6096C63.4885 10.666 60.2815 7.45897 56.3379 7.45897C52.3943 7.45897 49.1873 10.666 49.1873 14.6096C49.1873 17.1874 50.5697 19.5233 52.7626 20.7913V43.2288C52.7626 43.771 52.6375 44.3145 52.3979 44.8007L51.398 39.8024C51.2133 38.8764 50.857 38.0195 50.3779 37.2532H50.3791V30.1026C50.3791 26.8169 47.7059 24.1438 44.4202 24.1438H39.031C37.7558 22.2429 35.8859 20.7806 33.6943 20.0024V16.9931C33.6943 16.3365 34.2282 15.8014 34.8861 15.8014H42.0367V13.4178H34.8861C32.9149 13.4178 31.3107 15.0219 31.3107 16.9931V19.447C30.9186 19.4029 30.5218 19.3767 30.119 19.3767C29.7162 19.3767 29.3193 19.4029 28.9272 19.447V13.4178C28.9272 11.4466 27.3231 9.84251 25.3519 9.84251H21.7063C21.1116 4.48789 16.5626 0.30835 11.0506 0.30835C5.13588 0.30835 0.324707 5.12072 0.324707 11.0343C0.324707 16.9478 5.13588 21.7602 11.0506 21.7602C16.5626 21.7602 21.1116 17.5807 21.7063 12.2261H25.3519C26.0097 12.2261 26.5437 12.7612 26.5437 13.4178V20.0024C24.352 20.7806 22.4821 22.2429 21.2069 24.1438H6.28356C2.99785 24.1438 0.324707 26.8169 0.324707 30.1026V53.938C0.324707 57.2237 2.99785 59.8969 6.28356 59.8969H15.8177V62.2804H14.626C11.9969 62.2804 9.85887 64.4184 9.85887 67.0475C9.85887 68.362 10.9279 69.431 12.2424 69.431H38.4614C39.7759 69.431 40.8449 68.362 40.8449 67.0475C40.8449 64.4184 38.7069 62.2804 36.0778 62.2804H34.8861V59.8969H44.4202C45.8801 59.8969 47.2566 59.3439 48.3256 58.4L49.1873 60.171V62.2804H46.8038V74.1981H73.0227V62.2804H70.6392V60.2937L72.546 57.7517ZM5.89981 17.5843C6.95572 15.7549 8.89592 14.6096 11.0506 14.6096C13.2054 14.6096 15.1456 15.7549 16.2015 17.5843C14.7809 18.7033 12.9944 19.3767 11.0506 19.3767C9.10686 19.3767 7.3204 18.7033 5.89981 17.5843ZM8.6671 9.84251C8.6671 8.52799 9.73612 7.45897 11.0506 7.45897C12.3652 7.45897 13.4342 8.52799 13.4342 9.84251C13.4342 11.157 12.3652 12.2261 11.0506 12.2261C9.73612 12.2261 8.6671 11.157 8.6671 9.84251ZM17.8783 15.8133C17.0345 14.5965 15.9059 13.6276 14.5854 13.0114C15.3434 12.1677 15.8177 11.0641 15.8177 9.84251C15.8177 7.21347 13.6797 5.07543 11.0506 5.07543C8.4216 5.07543 6.28356 7.21347 6.28356 9.84251C6.28356 11.0641 6.75788 12.1677 7.51585 13.0114C6.19537 13.6276 5.06676 14.5965 4.22299 15.8133C3.27196 14.4582 2.70825 12.8124 2.70825 11.0343C2.70825 6.43405 6.4516 2.69189 11.0506 2.69189C15.6497 2.69189 19.393 6.43405 19.393 11.0343C19.393 12.8124 18.8293 14.4582 17.8783 15.8133ZM56.3379 9.84251C58.967 9.84251 61.105 11.9805 61.105 14.6096C61.105 16.141 60.3709 17.5378 59.1803 18.4245C58.5272 17.5604 57.5023 16.9931 56.3379 16.9931C55.1748 16.9931 54.1486 17.5604 53.4955 18.4233C52.305 17.5366 51.5708 16.1386 51.5708 14.6096C51.5708 11.9805 53.7089 9.84251 56.3379 9.84251ZM30.119 21.7602C34.718 21.7602 38.4614 25.5024 38.4614 30.1026C38.4614 31.8807 37.8977 33.5266 36.9466 34.8816C36.1028 33.6648 34.9742 32.6959 33.6538 32.0798C34.4117 31.236 34.8861 30.1324 34.8861 28.9108C34.8861 26.2818 32.748 24.1438 30.119 24.1438C27.4899 24.1438 25.3519 26.2818 25.3519 28.9108C25.3519 30.1324 25.8262 31.236 26.5842 32.0798C25.2637 32.6959 24.1351 33.6648 23.2913 34.8816C22.3403 33.5266 21.7766 31.8807 21.7766 30.1026C21.7766 25.5024 25.5199 21.7602 30.119 21.7602ZM27.7354 28.9108C27.7354 27.5963 28.8044 26.5273 30.119 26.5273C31.4335 26.5273 32.5025 27.5963 32.5025 28.9108C32.5025 30.2254 31.4335 31.2944 30.119 31.2944C28.8044 31.2944 27.7354 30.2254 27.7354 28.9108ZM30.119 33.6779C32.2737 33.6779 34.2139 34.8232 35.2698 36.6526C33.8492 37.7717 32.0627 38.445 30.119 38.445C28.1752 38.445 26.3887 37.7717 24.9681 36.6526C26.024 34.8232 27.9642 33.6779 30.119 33.6779ZM38.4614 67.0475L12.2424 67.0499V67.0475C12.2424 65.733 13.3114 64.664 14.626 64.664H36.0778C37.3923 64.664 38.4614 65.733 38.4614 67.0475ZM32.5025 62.2804H18.2013V59.8969H32.5025V62.2804ZM44.4202 57.5133H6.28356C4.31237 57.5133 2.70825 55.9092 2.70825 53.938V30.1026C2.70825 28.1314 4.31237 26.5273 6.28356 26.5273H20.0187C19.6207 27.6476 19.393 28.8477 19.393 30.1026C19.393 36.0162 24.2042 40.8285 30.119 40.8285C36.0337 40.8285 40.8449 36.0162 40.8449 30.1026C40.8449 28.8477 40.6173 27.6476 40.2192 26.5273H44.4202C46.3914 26.5273 47.9955 28.1314 47.9955 30.1026V34.8661C46.7906 34.0915 45.376 33.6279 43.866 33.6279C42.2011 33.6279 40.8449 34.9829 40.8449 36.649C40.8449 37.2473 41.0201 37.8265 41.3526 38.3246L42.5789 40.1647C43.033 40.8452 43.3262 41.6342 43.4275 42.4458L44.2522 49.0398C44.388 50.1398 44.736 51.185 45.2497 52.0753L47.2054 56.0963C46.5332 56.9687 45.5226 57.5133 44.4202 57.5133ZM70.6392 71.8146H49.1873V64.664H70.6392V71.8146ZM51.5708 62.2804V59.6228L47.3567 50.9622C46.9635 50.2769 46.7156 49.532 46.6178 48.7467L45.7931 42.1514C45.6465 40.9751 45.2223 39.831 44.5632 38.8442L43.3357 37.003C43.2654 36.8981 43.2284 36.7753 43.2284 36.649C43.2284 36.2974 43.5145 36.0114 43.866 36.0114C46.3819 36.0114 48.5664 37.8026 49.061 40.2696L50.5936 47.9291H53.4991L54.5169 45.8924C54.9281 45.0701 55.1461 44.1476 55.1461 43.2288V20.5684C55.1461 19.9118 55.6801 19.3767 56.3379 19.3767C56.9958 19.3767 57.5297 19.9118 57.5297 20.5684V34.8697V39.6368H59.9132V34.8697C59.9132 34.213 60.4471 33.6779 61.105 33.6779C61.7629 33.6779 62.2968 34.213 62.2968 34.8697V39.6368H64.6803V34.8697C64.6803 34.213 65.2142 33.6779 65.8721 33.6779C66.5299 33.6779 67.0639 34.213 67.0639 34.8697V37.2532V39.6368H69.4474V37.2532C69.4474 36.5966 69.9813 36.0615 70.6392 36.0615C71.297 36.0615 71.8309 36.5966 71.8309 37.2532V52.7463C71.8309 54.0274 71.4079 55.2978 70.6392 56.3216L68.2556 59.5V62.2804H51.5708Z" fill="#444444"/>
<path d="M36.0778 43.2119H33.6943V47.979H31.3108V45.5954H28.9272V47.979H26.5437V43.2119H24.1601V47.979H21.7766V38.4448H19.3931V47.979H17.0095V36.0613H14.626V47.979H12.2424V33.6777H9.85889V50.3625H38.4614V47.979H36.0778V43.2119Z" fill="#444444"/>
</svg>
