<svg width="31" height="31" viewBox="0 0 31 31" fill="none" xmlns="http://www.w3.org/2000/svg">
<path d="M5.9668 1.40186H29.6014V22.5486L22.1378 30.0121H5.9668V1.40186Z" fill="url(#paint0_linear_131_2549)"/>
<path d="M22.1377 22.5479H29.6012L22.1377 30.0114V22.5479Z" fill="#ABABAB"/>
<path d="M20.894 7.62061H0.991211V17.572H20.894V7.62061Z" fill="#B61D1D"/>
<path d="M5.58331 14.5856C5.54011 14.5856 5.50476 14.5718 5.47727 14.5443C5.44978 14.5168 5.43604 14.4815 5.43604 14.4383V10.6092C5.43604 10.566 5.44978 10.5306 5.47727 10.5032C5.50476 10.4757 5.54011 10.4619 5.58331 10.4619H7.19153C7.50964 10.4619 7.78454 10.511 8.01625 10.6092C8.25189 10.7074 8.43451 10.8566 8.56411 11.0569C8.69764 11.2533 8.7644 11.4987 8.7644 11.7933C8.7644 12.0917 8.69764 12.3392 8.56411 12.5355C8.43451 12.728 8.25189 12.8713 8.01625 12.9656C7.78454 13.0598 7.50964 13.1069 7.19153 13.1069H6.40214V14.4383C6.40214 14.4815 6.3884 14.5168 6.36091 14.5443C6.33342 14.5718 6.29807 14.5856 6.25487 14.5856H5.58331ZM6.38447 12.3765H7.16207C7.36236 12.3765 7.51749 12.3274 7.62745 12.2292C7.74134 12.131 7.79829 11.9837 7.79829 11.7874C7.79829 11.6146 7.74724 11.4732 7.64513 11.3632C7.54694 11.2533 7.38593 11.1983 7.16207 11.1983H6.38447V12.3765Z" fill="white"/>
<path d="M9.5125 14.5856C9.4693 14.5856 9.43395 14.5718 9.40646 14.5443C9.37897 14.5168 9.36523 14.4815 9.36523 14.4383V10.6092C9.36523 10.566 9.37897 10.5306 9.40646 10.5032C9.43395 10.4757 9.4693 10.4619 9.5125 10.4619H10.9911C11.3838 10.4619 11.7118 10.5248 11.9749 10.6504C12.238 10.7722 12.4383 10.9528 12.5758 11.1924C12.7172 11.428 12.7918 11.7206 12.7996 12.0701C12.8036 12.2429 12.8055 12.3941 12.8055 12.5237C12.8055 12.6533 12.8036 12.8026 12.7996 12.9714C12.7878 13.3367 12.7152 13.6391 12.5817 13.8786C12.4481 14.1182 12.2518 14.2969 11.9926 14.4147C11.7334 14.5286 11.4094 14.5856 11.0206 14.5856H9.5125ZM10.3019 13.8256H10.9911C11.1875 13.8256 11.3485 13.7962 11.4742 13.7373C11.5998 13.6784 11.6921 13.5861 11.751 13.4604C11.8139 13.3308 11.8473 13.1639 11.8512 12.9597C11.8551 12.8458 11.8571 12.7437 11.8571 12.6533C11.861 12.563 11.861 12.4727 11.8571 12.3824C11.8571 12.292 11.8551 12.1919 11.8512 12.0819C11.8433 11.7874 11.7668 11.5714 11.6214 11.4339C11.4801 11.2925 11.2601 11.2218 10.9617 11.2218H10.3019V13.8256Z" fill="white"/>
<path d="M13.6891 14.5856C13.6459 14.5856 13.6105 14.5718 13.583 14.5443C13.5555 14.5168 13.5418 14.4815 13.5418 14.4383V10.6092C13.5418 10.566 13.5555 10.5306 13.583 10.5032C13.6105 10.4757 13.6459 10.4619 13.6891 10.4619H16.3164C16.3596 10.4619 16.395 10.4757 16.4224 10.5032C16.4499 10.5306 16.4637 10.566 16.4637 10.6092V11.1099C16.4637 11.1531 16.4499 11.1885 16.4224 11.216C16.395 11.2434 16.3596 11.2572 16.3164 11.2572H14.4608V12.2528H16.1986C16.2418 12.2528 16.2771 12.2665 16.3046 12.294C16.3321 12.3215 16.3459 12.3568 16.3459 12.4V12.9008C16.3459 12.94 16.3321 12.9734 16.3046 13.0009C16.2771 13.0284 16.2418 13.0421 16.1986 13.0421H14.4608V14.4383C14.4608 14.4815 14.447 14.5168 14.4195 14.5443C14.392 14.5718 14.3567 14.5856 14.3135 14.5856H13.6891Z" fill="white"/>
<path d="M5.34484 0.778809V6.99844H0.369141V18.1938H5.34484V30.633H22.7598L30.2234 23.1695V0.778809H5.34484ZM1.61307 8.24236H20.272V16.9498H1.61307V8.24236ZM22.7598 28.8741V23.1695H28.4644L22.7598 28.8741ZM28.9794 21.9255H21.5159V29.3891H6.58877V18.1938H21.5159V6.99844H6.58877V2.02273H28.9794V21.9255Z" fill="#151515"/>
<defs>
<linearGradient id="paint0_linear_131_2549" x1="67.9765" y1="65.8994" x2="85.9885" y2="83.9115" gradientUnits="userSpaceOnUse">
<stop stop-color="#EFEEEE"/>
<stop offset="1" stop-color="#DEDEDD"/>
</linearGradient>
</defs>
</svg>
