<svg width="27" height="27" viewBox="0 0 27 27" fill="none" xmlns="http://www.w3.org/2000/svg">
<path d="M13.541 26.2075C20.7207 26.2075 26.541 20.3872 26.541 13.2075C26.541 6.02782 20.7207 0.20752 13.541 0.20752C6.36131 0.20752 0.541016 6.02782 0.541016 13.2075C0.541016 20.3872 6.36131 26.2075 13.541 26.2075Z" fill="#B61D1D"/>
<path fill-rule="evenodd" clip-rule="evenodd" d="M8.29102 7.95752H18.791C19.7575 7.95752 20.541 8.74102 20.541 9.70752V16.7075C20.541 17.674 19.7575 18.4575 18.791 18.4575H8.29102C7.32452 18.4575 6.54102 17.674 6.54102 16.7075V9.70752C6.54102 8.74102 7.32452 7.95752 8.29102 7.95752ZM8.29102 12.3325V16.7075H18.791V12.2401L13.541 14.9575L8.29102 12.3325ZM8.29102 10.5825L13.541 13.197L18.791 10.5825V9.70752H8.29102V10.5825Z" fill="white"/>
</svg>
