<svg width="27" height="27" viewBox="0 0 27 27" fill="none" xmlns="http://www.w3.org/2000/svg">
<path d="M13.2568 26.2075C20.4365 26.2075 26.2568 20.3872 26.2568 13.2075C26.2568 6.02782 20.4365 0.20752 13.2568 0.20752C6.07713 0.20752 0.256836 6.02782 0.256836 13.2075C0.256836 20.3872 6.07713 26.2075 13.2568 26.2075Z" fill="#B61D1D"/>
<path fill-rule="evenodd" clip-rule="evenodd" d="M12.4592 10.6443C12.8218 10.1556 12.9519 9.64054 12.5417 9.18592C11.6214 7.89806 11.0024 7.10166 10.6141 6.71813C9.87601 5.98899 8.66179 6.08762 8.02253 6.7175C7.67917 7.05582 7.56293 7.172 7.21038 7.5301C5.24663 9.49491 6.44423 13.6484 9.62788 16.8352C12.8108 20.0213 16.964 21.2195 18.9318 19.2506C19.2572 18.937 19.5326 18.6614 19.7498 18.4317C20.3763 17.7696 20.4714 16.6089 19.7457 15.8549C19.3737 15.4683 18.6142 14.8792 17.2722 13.9193C16.8612 13.5517 16.3738 13.6314 15.927 13.9245C15.7121 14.0655 15.5557 14.2082 15.2603 14.5038L14.724 15.0404C14.6534 15.1111 13.6942 14.6307 12.7631 13.6987C11.8315 12.7662 11.3515 11.807 11.4218 11.7367L11.9585 11.1997C12.0522 11.1059 12.097 11.0605 12.1544 11.0001C12.2741 10.8743 12.3732 10.7601 12.4592 10.6443ZM15.7133 16.0303L16.2497 15.4936C16.4123 15.3309 16.5176 15.2308 16.6033 15.1619C17.779 16.0061 18.4598 16.537 18.7379 16.826C18.9049 16.9994 18.879 17.316 18.7338 17.4694C18.5329 17.6817 18.272 17.9429 17.9517 18.2518C16.6792 19.5248 13.3267 18.5576 10.6174 15.8456C7.90729 13.1329 6.94051 9.77983 8.2034 8.51625C8.55453 8.15963 8.66577 8.04844 9.00423 7.71495C9.13113 7.58991 9.47679 7.56183 9.63117 7.71432C9.93008 8.0096 10.4846 8.71958 11.3002 9.8558C11.258 9.90823 11.2053 9.96747 11.1411 10.0349C11.094 10.0844 11.0547 10.1242 10.9689 10.2101L10.4328 10.7466C9.52067 11.6586 10.2975 13.2108 11.7736 14.6884C13.2487 16.165 14.8015 16.9426 15.7133 16.0303ZM14.4179 6.25684C17.444 6.62363 19.8434 9.02302 20.2101 12.049L18.8275 12.2795C18.5605 9.84206 16.6249 7.90647 14.1875 7.6395L14.4179 6.25684ZM13.9568 9.02319C15.8056 9.18856 17.2782 10.6611 17.4435 12.51L16.0564 12.7411C15.9976 11.4806 14.9861 10.4692 13.7256 10.4103L13.9568 9.02319Z" fill="white"/>
</svg>
