<svg width="41" height="42" viewBox="0 0 41 42" fill="none" xmlns="http://www.w3.org/2000/svg">
<circle cx="20.5" cy="21.2893" r="20.5" fill="url(#paint0_linear_131_2240)"/>
<path fill-rule="evenodd" clip-rule="evenodd" d="M24.0452 12.5182H16.9549C14.0733 12.5182 11.729 14.8625 11.729 17.7441V24.8344C11.729 27.7159 14.0733 30.0603 16.9549 30.0603H24.0452C26.9268 30.0603 29.2711 27.7159 29.2711 24.8344V17.7441C29.271 14.8625 26.9267 12.5182 24.0452 12.5182ZM27.5062 24.8347C27.5062 26.7462 25.9566 28.2958 24.0451 28.2958H16.9548C15.0432 28.2958 13.4936 26.7462 13.4936 24.8347V17.7444C13.4936 15.8328 15.0432 14.2832 16.9548 14.2832H24.0451C25.9566 14.2832 27.5062 15.8328 27.5062 17.7444V24.8347ZM15.9626 21.2897C15.9626 18.788 17.9979 16.7527 20.4996 16.7527C23.0013 16.7527 25.0366 18.7879 25.0366 21.2897C25.0366 23.7914 23.0013 25.8267 20.4996 25.8267C17.9979 25.8267 15.9626 23.7913 15.9626 21.2897ZM20.4998 24.0611C18.9687 24.0611 17.7275 22.82 17.7275 21.2889C17.7275 19.7578 18.9687 18.5166 20.4998 18.5166C22.0309 18.5166 23.272 19.7578 23.272 21.2889C23.272 22.8199 22.0308 24.0611 20.4998 24.0611ZM26.1329 16.7838C26.1329 17.3843 25.6462 17.871 25.0458 17.871C24.4454 17.871 23.9586 17.3843 23.9586 16.7838C23.9586 16.1834 24.4454 15.6967 25.0458 15.6967C25.6462 15.6967 26.1329 16.1834 26.1329 16.7838Z" fill="white"/>
<defs>
<linearGradient id="paint0_linear_131_2240" x1="20.5" y1="0.789307" x2="20.5" y2="41.7893" gradientUnits="userSpaceOnUse">
<stop stop-color="#D803DF"/>
<stop offset="1" stop-color="#FFA800"/>
</linearGradient>
</defs>
</svg>
