<svg width="41" height="41" viewBox="0 0 41 41" fill="none" xmlns="http://www.w3.org/2000/svg">
<rect width="40.9999" height="41" rx="20.5" fill="#B61D1D"/>
<path fill-rule="evenodd" clip-rule="evenodd" d="M19.4698 17.1074C19.9386 16.4606 20.1067 15.7789 19.5765 15.1772C18.3868 13.4727 17.5866 12.4186 17.0848 11.911C16.1306 10.946 14.561 11.0765 13.7346 11.9102C13.2908 12.358 13.1405 12.5117 12.6848 12.9857C10.1463 15.5862 11.6944 21.0835 15.8099 25.3013C19.9244 29.5181 25.2931 31.104 27.837 28.498C28.2575 28.083 28.6136 27.7182 28.8944 27.4143C29.7042 26.538 29.8272 25.0018 28.8891 24.0038C28.4081 23.4922 27.4264 22.7125 25.6916 21.4419C25.1602 20.9555 24.5302 21.0609 23.9527 21.4489C23.6748 21.6355 23.4726 21.8243 23.0908 22.2156L22.3976 22.9258C22.3062 23.0193 21.0663 22.3836 19.8627 21.15C18.6584 19.9158 18.0379 18.6463 18.1288 18.5532L18.8226 17.8425C18.9437 17.7184 19.0016 17.6583 19.0759 17.5783C19.2306 17.4118 19.3587 17.2608 19.4698 17.1074ZM23.6764 24.236L24.3698 23.5257C24.5799 23.3103 24.7161 23.1779 24.8269 23.0866C26.3466 24.204 27.2268 24.9066 27.5863 25.2891C27.8021 25.5187 27.7686 25.9377 27.5809 26.1408C27.3213 26.4218 26.9839 26.7674 26.5699 27.1762C24.925 28.8611 20.5912 27.5809 17.089 23.9916C13.5856 20.4012 12.3359 15.9634 13.9684 14.291C14.4223 13.819 14.5661 13.6718 15.0036 13.2304C15.1677 13.065 15.6145 13.0278 15.8141 13.2296C16.2005 13.6204 16.9172 14.5601 17.9716 16.0639C17.9171 16.1333 17.8489 16.2117 17.7659 16.301C17.705 16.3665 17.6543 16.4192 17.5434 16.5328L16.8503 17.2429C15.6712 18.45 16.6754 20.5044 18.5835 22.46C20.4904 24.4143 22.4977 25.4435 23.6764 24.236ZM22.0019 11.3005C25.9136 11.7859 29.0153 14.9616 29.4894 18.9666L27.702 19.2716C27.3569 16.0456 24.8548 13.4838 21.704 13.1305L22.0019 11.3005ZM21.4058 14.9621C23.7958 15.1809 25.6993 17.1298 25.9131 19.5769L24.12 19.8829C24.0439 18.2146 22.7364 16.8758 21.107 16.7979L21.4058 14.9621Z" fill="white"/>
</svg>
