<svg width="41" height="41" viewBox="0 0 41 41" fill="none" xmlns="http://www.w3.org/2000/svg">
<rect width="40.9999" height="41" rx="20.5" fill="#36D147"/>
<path d="M30.3484 20.2404C30.3484 25.6658 26.0197 30.0639 20.6791 30.0639C18.9837 30.0639 17.3909 29.6202 16.0052 28.8416L10.6519 30.5833L12.3972 25.3127C11.5168 23.8325 11.0097 22.0964 11.0097 20.2404C11.0097 14.8149 15.3388 10.4169 20.6791 10.4169C26.0202 10.4169 30.3484 14.8149 30.3484 20.2404ZM20.6791 11.9813C16.1962 11.9813 12.5497 15.6864 12.5497 20.2404C12.5497 22.0475 13.1251 23.7211 14.0983 25.0826L13.0826 28.1499L16.2067 27.1333C17.4903 27.9962 19.0279 28.4994 20.6794 28.4994C25.1616 28.4994 28.8088 24.7948 28.8088 20.2408C28.8088 15.6868 25.1619 11.9813 20.6791 11.9813ZM25.5619 22.5028C25.5022 22.4027 25.3444 22.3422 25.1076 22.2218C24.8703 22.1015 23.7047 21.5187 23.4881 21.4387C23.2708 21.3585 23.1123 21.3182 22.9545 21.559C22.7967 21.8001 22.3424 22.3422 22.2039 22.5028C22.0656 22.6639 21.9275 22.6841 21.6902 22.5635C21.4534 22.4432 20.6899 22.1887 19.7845 21.3686C19.08 20.7304 18.6042 19.9426 18.4659 19.7013C18.3278 19.4604 18.4515 19.3302 18.5699 19.2103C18.6767 19.1023 18.8071 18.9291 18.9255 18.7886C19.0443 18.6479 19.0837 18.5477 19.1623 18.3869C19.2417 18.2262 19.2021 18.0857 19.1426 17.9649C19.0835 17.8446 18.609 16.6597 18.4116 16.1775C18.2142 15.6958 18.017 15.776 17.8785 15.776C17.7404 15.776 17.5822 15.7558 17.4242 15.7558C17.2662 15.7558 17.0092 15.8161 16.7919 16.057C16.5748 16.2981 15.9627 16.8807 15.9627 18.0653C15.9627 19.2502 16.8116 20.395 16.9305 20.5554C17.0489 20.7159 18.5696 23.2264 20.9792 24.1905C23.3889 25.1543 23.3889 24.8327 23.8236 24.7924C24.2578 24.7523 25.2255 24.21 25.4238 23.6481C25.6208 23.0852 25.6208 22.6032 25.5619 22.5028Z" fill="white"/>
</svg>
