<svg width="66" height="66" viewBox="0 0 66 66" fill="none" xmlns="http://www.w3.org/2000/svg">
<circle cx="32.6992" cy="32.7404" r="32.3339" fill="white" fill-opacity="0.4"/>
<circle cx="32.6992" cy="32.7404" r="24.7407" fill="white"/>
<path d="M46.2579 36.5003L31.9221 42.4409C31.3499 42.1439 30.6724 42.0606 30.0194 42.2433C30.0133 42.2298 30.0048 42.2183 29.999 42.2045L22.9566 25.2094C22.5576 24.2466 21.476 23.7772 20.5458 24.1627L17.6426 25.3657L18.2132 26.7426L21.1162 25.5397C21.2872 25.4688 21.495 25.5767 21.5793 25.7801L28.6218 42.7752C28.6605 42.8685 28.7056 42.9571 28.7536 43.0431C28.1252 43.7659 27.9177 44.808 28.3094 45.7531C28.8609 47.0841 30.3868 47.7159 31.7178 47.1644C33.0488 46.6128 33.6805 45.087 33.129 43.756C33.1049 43.6979 33.0768 43.6427 33.049 43.5875L46.8281 37.8777L46.2579 36.5003Z" fill="#B61D1D"/>
<path d="M38.6959 26.5243L27.5068 31.1609L31.5726 40.9725L42.7612 36.3361L38.6959 26.5243ZM40.8138 35.5295L32.3793 39.0247L29.4548 31.9672L37.8893 28.4721L40.8138 35.5295Z" fill="#B61D1D"/>
<path d="M32.1315 18.9581L23.8691 22.3818L27.2929 30.6442L35.5552 27.2204L32.1315 18.9581ZM33.6077 26.4139L28.0995 28.6964L25.8168 23.1878L31.325 20.9053L33.6077 26.4139Z" fill="#B61D1D"/>
</svg>
