<svg width="65" height="66" viewBox="0 0 65 66" fill="none" xmlns="http://www.w3.org/2000/svg">
<circle cx="32.3344" cy="32.7404" r="32.3339" fill="white" fill-opacity="0.4"/>
<circle cx="32.3344" cy="32.7404" r="24.7407" fill="white"/>
<path d="M44.3798 24.0596L42.027 21.7068C41.7284 21.4085 41.2936 21.2919 40.886 21.4011C40.4782 21.5104 40.16 21.8286 40.0507 22.2364C39.9415 22.644 40.0581 23.0788 40.3564 23.3774L40.7329 23.754L39.3094 25.283C37.5104 23.7694 35.2963 22.8346 32.9568 22.601V21.3657H34.1332C34.5536 21.3657 34.942 21.1415 35.1521 20.7775C35.3621 20.4136 35.3621 19.9651 35.1521 19.6011C34.942 19.2372 34.5536 19.0129 34.1332 19.0129H29.4276C29.0072 19.0129 28.6189 19.2372 28.4088 19.6011C28.1987 19.9651 28.1987 20.4136 28.4088 20.7775C28.6189 21.1415 29.0072 21.3657 29.4276 21.3657H30.604V22.5421C28.0012 22.8003 25.5586 23.9184 23.6619 25.72C21.7655 27.5216 20.5237 29.9035 20.1327 32.49C19.7417 35.0763 20.2236 37.7192 21.5026 40.0008C22.7814 42.2824 24.7842 44.0728 27.1946 45.089C29.6046 46.1049 32.2849 46.2891 34.8109 45.6116C37.3373 44.9341 39.5659 43.4341 41.1443 41.3484C42.723 39.263 43.5615 36.7106 43.5273 34.095C43.4932 31.4797 42.5883 28.9504 40.9558 26.9069L42.3675 25.4127L42.6734 25.7305C42.8942 25.9531 43.1949 26.0784 43.5087 26.0784C43.8222 26.0784 44.1229 25.9531 44.3437 25.7305C44.5714 25.5144 44.703 25.2163 44.7095 24.9025C44.7161 24.5888 44.5971 24.2855 44.3792 24.0599L44.3798 24.0596ZM31.7802 43.7176C29.2843 43.7176 26.8905 42.7261 25.1254 40.9612C23.3605 39.1961 22.369 36.8023 22.369 34.3064C22.369 31.8105 23.3605 29.4167 25.1254 27.6516C26.8905 25.8867 29.2843 24.8952 31.7802 24.8952C34.2761 24.8952 36.6699 25.8867 38.435 27.6516C40.1999 29.4167 41.1914 31.8105 41.1914 34.3064C41.1914 36.8023 40.1999 39.1961 38.435 40.9612C36.6699 42.7261 34.2761 43.7176 31.7802 43.7176ZM32.9566 28.4244V34.3064C32.9566 34.6183 32.8327 34.9177 32.6121 35.1383C32.3915 35.3588 32.0922 35.4828 31.7802 35.4828H24.7218C24.3014 35.4828 23.913 35.2585 23.703 34.8946C23.4929 34.5306 23.4929 34.0821 23.703 33.7182C23.913 33.3542 24.3014 33.13 24.7218 33.13H30.6038V28.4244C30.6038 28.004 30.8281 27.6156 31.192 27.4055C31.556 27.1955 32.0045 27.1955 32.3684 27.4055C32.7323 27.6156 32.9566 28.004 32.9566 28.4244Z" fill="#B61D1D"/>
</svg>
