<svg width="66" height="65" viewBox="0 0 66 65" fill="none" xmlns="http://www.w3.org/2000/svg">
<circle cx="32.6992" cy="32.3994" r="32.3339" fill="white" fill-opacity="0.4"/>
<circle cx="32.6992" cy="32.3994" r="24.7407" fill="white"/>
<path d="M37.5109 27.7217L30.3575 34.8715L27.157 31.671C26.7446 31.2586 26.0714 31.2586 25.6589 31.671C25.2465 32.0835 25.2465 32.7567 25.6589 33.1691L29.6083 37.1185C29.8162 37.3263 30.0868 37.4288 30.3573 37.4288C30.6279 37.4288 30.8984 37.3266 31.1062 37.1185L39.0084 29.2192C39.4209 28.8068 39.4209 28.1336 39.0084 27.7211C38.5925 27.3055 37.9228 27.3055 37.5104 27.7214L37.5109 27.7217Z" fill="#B61D1D"/>
<path d="M32.3341 19.2219C25.0553 19.2219 19.1362 25.1409 19.1362 32.4198C19.1362 39.6987 25.0553 45.6177 32.3341 45.6177C39.613 45.6177 45.532 39.6987 45.532 32.4198C45.532 25.1409 39.613 19.2219 32.3341 19.2219ZM32.3341 43.4996C26.2266 43.4996 21.2544 38.5306 21.2544 32.4198C21.2544 26.3091 26.2266 21.3401 32.3341 21.3401C38.4416 21.3401 43.4139 26.3091 43.4139 32.4198C43.4139 38.5306 38.4416 43.4996 32.3341 43.4996Z" fill="#B61D1D"/>
</svg>
