<svg width="65" height="65" viewBox="0 0 65 65" fill="none" xmlns="http://www.w3.org/2000/svg">
<circle cx="32.3344" cy="32.3994" r="32.3339" fill="white" fill-opacity="0.4"/>
<circle cx="32.3344" cy="32.3994" r="24.7407" fill="white"/>
<path d="M44.9084 32.3449C44.8686 30.6045 43.4414 29.2007 41.6913 29.2007C39.9413 29.2007 38.5145 30.6048 38.4745 32.3449C38.4735 32.3631 38.4728 32.3812 38.4728 32.3992C38.4728 33.9249 37.9295 35.0222 36.8119 35.7545C36.3768 36.0398 35.8498 36.2682 35.2447 36.4371C35.3664 36.1015 35.4334 35.7398 35.4334 35.3622C35.4334 33.6375 34.042 32.2325 32.3227 32.2082C32.3115 32.2077 32.3004 32.2077 32.2889 32.2075C32.285 32.2075 32.2818 32.2073 32.2783 32.2073L20.6222 32.2072C20.1455 32.2072 19.7588 32.5938 19.7588 33.0705V33.8991C19.7588 35.5974 20.0961 37.1762 20.7612 38.591C21.397 39.9431 22.3198 41.1228 23.5037 42.0978C25.758 43.9535 28.8943 44.9753 32.3345 44.9753C35.6939 44.9753 38.8518 43.667 41.2269 41.2919C43.5932 38.9256 44.8999 35.7826 44.9098 32.4375C44.91 32.4315 44.9103 32.4257 44.9103 32.4195C44.9103 32.4172 44.9101 32.4152 44.9101 32.4131C44.9101 32.4085 44.9103 32.4043 44.9103 32.3997C44.9103 32.3813 44.9093 32.3632 44.9086 32.345L44.9084 32.3449ZM32.3344 43.2479C26.9447 43.2479 21.5065 40.3677 21.4866 33.9344L32.2787 33.9346C33.066 33.9346 33.7067 34.5751 33.7067 35.3622C33.7067 36.1499 33.0664 36.7903 32.2787 36.7903L26.5833 36.7901C26.1066 36.7901 25.7199 37.1768 25.7199 37.6538C25.7199 38.1309 26.1066 38.5172 26.5833 38.5172H32.4494C32.4616 38.5172 32.4742 38.517 32.4864 38.5162C34.6805 38.4969 36.4538 38.0541 37.7588 37.199C39.3457 36.1591 40.1889 34.5135 40.1995 32.4388C40.1995 32.4324 40.1997 32.4255 40.1997 32.4193C40.1997 31.5966 40.8688 30.9279 41.6911 30.9279C42.5111 30.9279 43.1789 31.5936 43.1822 32.4124C43.1755 38.3885 38.312 43.2484 32.3345 43.2484L32.3344 43.2479Z" fill="#B61D1D"/>
<path d="M26.8434 31.8197C27.3201 31.8197 27.7068 31.4335 27.7068 30.9563C27.7068 28.7094 29.5346 26.8818 31.7813 26.8818C34.0281 26.8818 35.8559 28.7096 35.8559 30.9563V33.4851C35.8559 33.9622 36.2424 34.3489 36.7193 34.3489C37.196 34.3489 37.5827 33.9622 37.5827 33.4851L37.5829 30.9563C37.5829 28.6565 36.2382 26.6653 34.2932 25.7269C34.8968 25.0998 35.2682 24.2477 35.2682 23.3108C35.2682 21.3878 33.7038 19.8237 31.7812 19.8237C29.8584 19.8236 28.2938 21.3876 28.2938 23.3106C28.2938 24.2479 28.6656 25.0997 29.2691 25.7267C27.3246 26.6648 25.9795 28.6562 25.9795 30.9561C25.9795 31.433 26.366 31.8195 26.8432 31.8195L26.8434 31.8197ZM31.7816 21.5506C32.7524 21.5506 33.5418 22.3403 33.5418 23.3105C33.5418 24.2813 32.7523 25.0707 31.7816 25.0707C30.8108 25.0707 30.0214 24.2811 30.0214 23.3105C30.0212 22.3402 30.8108 21.5506 31.7816 21.5506Z" fill="#B61D1D"/>
</svg>
